<svg width="619" height="463" viewBox="0 0 619 463" fill="none" xmlns="http://www.w3.org/2000/svg">
<path d="M394.458 347.097V458.707H123.48C92.6057 458.707 67.4861 433.672 67.4861 402.902C67.4861 372.132 92.6057 347.097 123.48 347.097H394.458Z" fill="#F2F2F2"/>
<path d="M401.114 457.849C401.113 458.987 400.675 460.079 399.895 460.884C399.115 461.689 398.057 462.141 396.954 462.141H118.653C103.538 462.141 89.0425 455.945 78.3545 444.916C67.6666 433.887 61.6622 418.929 61.6622 403.331C61.6622 387.734 67.6666 372.775 78.3545 361.746C89.0425 350.717 103.538 344.521 118.653 344.521H396.954C398.057 344.521 399.115 344.973 399.895 345.778C400.676 346.583 401.114 347.675 401.114 348.814C401.114 349.952 400.676 351.044 399.895 351.849C399.115 352.654 398.057 353.107 396.954 353.107H118.653C105.745 353.107 93.3652 358.398 84.2376 367.817C75.1099 377.236 69.9821 390.011 69.9821 403.331C69.9821 416.652 75.1099 429.427 84.2376 438.846C93.3652 448.264 105.745 453.556 118.653 453.556H396.954C398.057 453.556 399.115 454.009 399.895 454.814C400.675 455.619 401.113 456.71 401.114 457.849Z" fill="#FF8A00"/>
<path d="M394.458 372.853H103.262C103.041 372.853 102.829 372.763 102.673 372.602C102.517 372.441 102.43 372.222 102.43 371.995C102.43 371.767 102.517 371.548 102.673 371.387C102.829 371.226 103.041 371.136 103.262 371.136H394.458C394.679 371.136 394.89 371.226 395.046 371.387C395.202 371.548 395.29 371.767 395.29 371.995C395.29 372.222 395.202 372.441 395.046 372.602C394.89 372.763 394.679 372.853 394.458 372.853Z" fill="#4D546F"/>
<path d="M394.458 393.458H103.262C103.041 393.458 102.829 393.368 102.673 393.207C102.517 393.046 102.43 392.827 102.43 392.6C102.43 392.372 102.517 392.153 102.673 391.992C102.829 391.831 103.041 391.741 103.262 391.741H394.458C394.679 391.741 394.89 391.831 395.046 391.992C395.202 392.153 395.29 392.372 395.29 392.6C395.29 392.827 395.202 393.046 395.046 393.207C394.89 393.368 394.679 393.458 394.458 393.458Z" fill="#4D546F"/>
<path d="M394.458 414.063H103.262C103.041 414.063 102.829 413.973 102.673 413.812C102.517 413.651 102.43 413.432 102.43 413.205C102.43 412.977 102.517 412.758 102.673 412.597C102.829 412.436 103.041 412.346 103.262 412.346H394.458C394.679 412.346 394.89 412.436 395.046 412.597C395.202 412.758 395.29 412.977 395.29 413.205C395.29 413.432 395.202 413.651 395.046 413.812C394.89 413.973 394.679 414.063 394.458 414.063Z" fill="#4D546F"/>
<path d="M394.458 434.668H103.262C103.041 434.668 102.829 434.578 102.673 434.417C102.517 434.256 102.43 434.037 102.43 433.81C102.43 433.582 102.517 433.364 102.673 433.203C102.829 433.042 103.041 432.951 103.262 432.951H394.458C394.679 432.951 394.89 433.042 395.046 433.203C395.202 433.364 395.29 433.582 395.29 433.81C395.29 434.037 395.202 434.256 395.046 434.417C394.89 434.578 394.679 434.668 394.458 434.668Z" fill="#4D546F"/>
<path d="M603.884 368.106L536.023 455.015L325.018 279.572C300.977 259.582 296.638 223.824 315.347 199.864C334.056 175.904 368.838 172.673 392.879 192.663L603.884 368.106Z" fill="#F2F2F2"/>
<path d="M541.728 458.656C541.035 459.542 540.03 460.108 538.934 460.23C537.837 460.352 536.738 460.019 535.879 459.305L319.172 279.121C307.402 269.335 299.881 255.125 298.265 239.617C296.648 224.109 301.068 208.573 310.551 196.428C320.035 184.282 333.805 176.522 348.834 174.854C363.862 173.185 378.917 177.746 390.687 187.532L607.394 367.716C607.819 368.07 608.173 368.507 608.436 369.002C608.698 369.496 608.863 370.04 608.921 370.6C608.98 371.161 608.931 371.728 608.777 372.269C608.623 372.81 608.368 373.315 608.025 373.754C607.682 374.193 607.258 374.558 606.779 374.829C606.299 375.099 605.773 375.269 605.229 375.329C604.686 375.389 604.136 375.338 603.612 375.179C603.088 375.02 602.599 374.756 602.174 374.402L385.467 194.217C380.49 190.076 374.771 186.987 368.637 185.127C362.504 183.267 356.075 182.672 349.718 183.376C343.361 184.081 337.201 186.07 331.59 189.232C325.979 192.393 321.026 196.665 317.015 201.802C313.004 206.939 310.012 212.841 308.212 219.172C306.412 225.502 305.838 232.136 306.523 238.696C307.208 245.255 309.139 251.611 312.205 257.4C315.271 263.189 319.412 268.298 324.392 272.435L541.099 452.62C541.957 453.334 542.506 454.372 542.624 455.503C542.742 456.635 542.42 457.769 541.728 458.656Z" fill="#091337"/>
<path d="M588.224 388.162L361.475 199.628C361.39 199.558 361.319 199.47 361.267 199.371C361.215 199.272 361.182 199.164 361.17 199.052C361.158 198.94 361.168 198.826 361.199 198.718C361.23 198.61 361.281 198.509 361.349 198.421C361.418 198.333 361.502 198.26 361.598 198.206C361.694 198.152 361.799 198.118 361.908 198.106C362.017 198.094 362.127 198.104 362.231 198.136C362.336 198.168 362.434 198.221 362.519 198.291L589.268 386.825C589.353 386.896 589.424 386.983 589.476 387.082C589.529 387.181 589.562 387.29 589.574 387.402C589.586 387.514 589.576 387.627 589.545 387.736C589.514 387.844 589.463 387.945 589.394 388.033C589.326 388.121 589.241 388.194 589.145 388.248C589.049 388.302 588.944 388.336 588.835 388.348C588.726 388.36 588.616 388.35 588.512 388.318C588.407 388.286 588.309 388.233 588.224 388.162V388.162Z" fill="#FFCE99"/>
<path d="M575.696 404.207L348.947 215.673C348.775 215.53 348.666 215.323 348.642 215.096C348.619 214.87 348.684 214.644 348.822 214.467C348.96 214.289 349.161 214.176 349.38 214.152C349.599 214.127 349.819 214.193 349.991 214.336L576.74 402.87C576.825 402.94 576.896 403.028 576.948 403.127C577.001 403.226 577.034 403.334 577.046 403.446C577.057 403.559 577.048 403.672 577.017 403.78C576.986 403.889 576.935 403.99 576.866 404.078C576.798 404.165 576.713 404.238 576.617 404.292C576.521 404.347 576.416 404.381 576.307 404.393C576.198 404.405 576.088 404.394 575.983 404.362C575.878 404.331 575.781 404.278 575.696 404.207Z" fill="#FFCE99"/>
<path d="M563.168 420.251L336.419 231.718C336.247 231.575 336.137 231.367 336.114 231.141C336.09 230.915 336.154 230.688 336.293 230.511C336.431 230.333 336.632 230.22 336.852 230.196C337.071 230.171 337.291 230.238 337.463 230.381L564.212 418.914C564.297 418.985 564.367 419.072 564.42 419.171C564.472 419.27 564.505 419.379 564.517 419.491C564.528 419.603 564.519 419.717 564.488 419.825C564.457 419.933 564.406 420.034 564.337 420.122C564.269 420.209 564.184 420.282 564.088 420.336C563.992 420.39 563.887 420.424 563.779 420.436C563.67 420.449 563.56 420.438 563.455 420.407C563.35 420.375 563.253 420.322 563.168 420.251V420.251Z" fill="#FFCE99"/>
<path d="M550.639 436.296L323.891 247.762C323.805 247.692 323.735 247.604 323.682 247.505C323.63 247.407 323.597 247.298 323.585 247.186C323.574 247.074 323.584 246.96 323.614 246.852C323.645 246.744 323.696 246.643 323.765 246.555C323.833 246.468 323.918 246.395 324.014 246.34C324.11 246.286 324.215 246.252 324.324 246.24C324.432 246.228 324.542 246.238 324.647 246.27C324.752 246.302 324.849 246.355 324.935 246.425L551.683 434.959C551.769 435.03 551.839 435.117 551.892 435.216C551.944 435.315 551.977 435.424 551.989 435.536C552.001 435.648 551.991 435.762 551.961 435.87C551.93 435.978 551.879 436.079 551.81 436.167C551.741 436.255 551.657 436.328 551.561 436.382C551.465 436.436 551.359 436.47 551.251 436.482C551.142 436.494 551.032 436.484 550.927 436.452C550.822 436.42 550.724 436.367 550.639 436.296Z" fill="#FFCE99"/>
<path d="M618.168 463H0.831989C0.611332 463 0.399712 462.91 0.243683 462.749C0.0876551 462.588 0 462.369 0 462.141C0 461.914 0.0876551 461.695 0.243683 461.534C0.399712 461.373 0.611332 461.283 0.831989 461.283H618.168C618.389 461.283 618.6 461.373 618.756 461.534C618.912 461.695 619 461.914 619 462.141C619 462.369 618.912 462.588 618.756 462.749C618.6 462.91 618.389 463 618.168 463Z" fill="#CCCCCC"/>
<path d="M281.28 335.366L271.768 335.365L267.245 297.507L281.283 297.508L281.28 335.366Z" fill="#AF7676"/>
<path d="M264.974 332.56H283.317V344.479H253.424C253.424 342.914 253.723 341.364 254.303 339.918C254.884 338.472 255.735 337.158 256.807 336.051C257.88 334.944 259.153 334.067 260.554 333.468C261.955 332.869 263.457 332.56 264.974 332.56Z" fill="#6E00B3"/>
<path d="M184.108 335.366L174.596 335.365L170.073 297.507L184.111 297.508L184.108 335.366Z" fill="#AF7676"/>
<path d="M167.802 332.56H186.146V344.479H156.253C156.253 342.914 156.551 341.364 157.132 339.918C157.712 338.472 158.563 337.158 159.635 336.051C160.708 334.944 161.981 334.067 163.382 333.468C164.784 332.869 166.285 332.56 167.802 332.56Z" fill="#6E00B3"/>
<path d="M215.877 54.5458V50.2531C215.877 42.9098 218.704 35.8672 223.736 30.6747C228.768 25.4822 235.592 22.5651 242.709 22.5651H242.709C249.825 22.5651 256.65 25.4822 261.682 30.6747C266.713 35.8672 269.54 42.9098 269.54 50.2531V54.5458C269.54 59.8399 267.502 64.9171 263.875 68.6605C260.247 72.4039 255.327 74.507 250.197 74.507H235.221C232.681 74.507 230.165 73.9907 227.818 72.9875C225.471 71.9844 223.339 70.5141 221.543 68.6605C219.746 66.8069 218.322 64.6064 217.349 62.1846C216.377 59.7628 215.877 57.1672 215.877 54.5458Z" fill="#2F2E41"/>
<path d="M242.709 75.984C253.994 75.984 263.143 66.5432 263.143 54.8974C263.143 43.2515 253.994 33.8107 242.709 33.8107C231.423 33.8107 222.274 43.2515 222.274 54.8974C222.274 66.5432 231.423 75.984 242.709 75.984Z" fill="#AF7676"/>
<path d="M131.558 127.37C132.387 126.562 133.378 125.951 134.461 125.581C135.543 125.211 136.692 125.09 137.824 125.227C138.957 125.365 140.047 125.757 141.017 126.376C141.987 126.994 142.814 127.825 143.439 128.81L160.956 125.39L165.566 135.869L140.763 140.339C139.091 141.313 137.13 141.62 135.253 141.203C133.376 140.785 131.713 139.672 130.578 138.073C129.443 136.474 128.917 134.502 129.097 132.529C129.278 130.556 130.153 128.721 131.558 127.37V127.37Z" fill="#AF7676"/>
<path d="M226.777 89.2637L227.007 89.6219L198.281 109.149L149.811 125.121C149.169 125.334 148.618 125.77 148.252 126.355C147.886 126.94 147.728 127.638 147.804 128.33L148.862 137.728C148.909 138.144 149.039 138.545 149.245 138.906C149.451 139.267 149.728 139.579 150.058 139.823C150.388 140.067 150.763 140.238 151.16 140.323C151.558 140.409 151.968 140.407 152.365 140.32L197.982 130.23C200.19 129.744 202.278 128.796 204.115 127.443L236.386 103.75C237.556 102.886 238.49 101.725 239.096 100.379C239.702 99.0329 239.961 97.5479 239.846 96.0682C239.728 94.5866 239.238 93.1622 238.424 91.9353C237.611 90.7084 236.501 89.7211 235.206 89.0707C233.91 88.4203 232.473 88.1291 231.035 88.2257C229.598 88.3224 228.209 88.8035 227.007 89.6219L226.777 89.2637Z" fill="#FF4646"/>
<path d="M271.938 324.622C271.208 324.623 270.494 324.403 269.883 323.992C269.271 323.58 268.789 322.993 268.496 322.303L224.891 211.121C224.79 210.88 224.619 210.677 224.402 210.539C224.184 210.401 223.932 210.335 223.677 210.35C223.423 210.365 223.179 210.46 222.978 210.622C222.777 210.784 222.63 211.006 222.555 211.257L186.98 319.497C186.83 320 186.582 320.467 186.25 320.868C185.919 321.269 185.511 321.596 185.053 321.828C184.595 322.061 184.095 322.194 183.585 322.22C183.075 322.246 182.565 322.164 182.087 321.979L170.157 317.363C169.51 317.114 168.942 316.686 168.516 316.124C168.091 315.563 167.825 314.89 167.747 314.182C162.38 265.938 209.18 144.165 209.654 142.941L209.785 142.602L252.447 152.34L252.535 152.44C269.556 171.601 283.547 292.453 286.178 316.485C286.276 317.353 286.085 318.229 285.636 318.97C285.186 319.711 284.506 320.272 283.706 320.56L273.177 324.403C272.779 324.548 272.36 324.622 271.938 324.622Z" fill="#2F2E41"/>
<path d="M235.18 156.26C224.844 156.26 213.32 154.133 209.773 145.356L209.692 145.154L209.802 144.967C212.602 140.226 216.302 132.14 214.313 130.622C210.395 127.633 208.494 122.715 208.663 116.005C209.029 101.439 218.647 88.5069 232.596 83.8247H232.596C236.489 82.5389 240.452 81.4862 244.463 80.6718C247.387 80.063 250.405 80.1299 253.301 80.8679C256.198 81.6059 258.899 82.9967 261.213 84.9402C263.555 86.8965 265.449 89.3639 266.757 92.1651C268.066 94.9663 268.756 98.0319 268.78 101.141C268.927 116.708 266.604 138.388 254.71 153.272C254.152 153.963 253.376 154.428 252.519 154.587C246.797 155.655 240.996 156.215 235.18 156.26Z" fill="#FF4646"/>
<path d="M231.336 155.677C231.898 153.595 233.234 151.826 235.054 150.754C236.873 149.683 239.029 149.396 241.052 149.955C241.465 150.074 241.868 150.228 242.256 150.416L255.557 137.925L264.807 144.356L245.787 161.725C244.928 163.323 243.575 164.578 241.945 165.292C240.315 166.005 238.5 166.136 236.79 165.663C235.794 165.381 234.861 164.899 234.047 164.243C233.232 163.588 232.552 162.772 232.045 161.844C231.537 160.915 231.213 159.892 231.092 158.833C230.97 157.775 231.053 156.702 231.336 155.677Z" fill="#AF7676"/>
<path d="M253.45 155.835C252.587 155.836 251.751 155.528 251.083 154.964L245.838 150.541C245.401 150.172 245.05 149.706 244.812 149.178C244.574 148.649 244.455 148.072 244.463 147.489C244.472 146.907 244.608 146.334 244.862 145.813C245.116 145.293 245.48 144.838 245.929 144.484L267.928 127.073C268.188 126.865 268.359 126.56 268.404 126.223C268.448 125.887 268.362 125.546 268.164 125.274L254.585 106.75C253.008 104.605 252.216 101.953 252.352 99.2641C252.487 96.5749 253.539 94.0218 255.324 92.0567C257.203 89.9626 259.776 88.674 262.533 88.4464C265.289 88.2189 268.028 89.0691 270.206 90.8284L270.292 90.9219L284.471 111.872C286.004 113.113 287.238 114.702 288.078 116.517C288.917 118.331 289.339 120.321 289.31 122.331C289.281 124.341 288.802 126.318 287.911 128.105C287.019 129.893 285.739 131.444 284.171 132.637L255.679 155.078C255.034 155.57 254.253 155.835 253.45 155.835Z" fill="#FF4646"/>
<path d="M224.608 48.9653V38.503L242.709 30.3468L259.968 38.503V48.9653C259.968 49.4207 259.792 49.8574 259.48 50.1795C259.168 50.5015 258.745 50.6824 258.304 50.6824H226.272C225.831 50.6824 225.408 50.5015 225.096 50.1795C224.783 49.8574 224.608 49.4207 224.608 48.9653Z" fill="#2F2E41"/>
<path d="M241.878 23.953C239.216 15.1628 244.806 5.08885 253.069 1.60946C261.332 -1.86993 271.217 0.562267 278.189 6.31074C285.162 12.0592 289.488 20.6694 291.78 29.5697C294.072 38.47 294.507 47.7509 294.93 56.9498C305.082 58.8741 311.988 71.2997 308.471 81.3138C304.954 91.3279 291.937 96.3029 282.948 91.0688C273.958 85.8347 271.354 71.7648 277.842 63.4806C280.912 59.5608 282.627 54.696 282.715 49.6569C282.804 44.6177 281.26 39.6922 278.329 35.6605C275.398 31.6287 271.248 28.7213 266.535 27.3985C261.822 26.0758 256.816 26.4134 252.31 28.3579C247.307 30.5171 241.029 24.9071 241.878 23.953Z" fill="#2F2E41"/>
<path d="M127.805 86.7839C115.651 86.7016 103.648 83.9888 92.5721 78.821C91.9128 78.5178 91.3533 78.0233 90.9615 77.3977C90.5698 76.772 90.3628 76.0424 90.3658 75.2975V44.0312C90.3669 43.0069 90.7617 42.0249 91.4636 41.3006C92.1655 40.5763 93.1172 40.1689 94.1098 40.1677H161.501C162.493 40.1689 163.445 40.5763 164.147 41.3006C164.849 42.0249 165.244 43.0069 165.245 44.0312V75.2976C165.248 76.0424 165.041 76.7721 164.649 77.3977C164.257 78.0233 163.698 78.5178 163.039 78.8211C151.963 83.9889 139.96 86.7016 127.805 86.7839Z" fill="#FF8A00"/>
<path d="M127.796 61.4544C127.296 61.4548 126.802 61.3522 126.341 61.1525L72.9009 37.8864C72.2118 37.5864 71.6255 37.0802 71.2177 36.4332C70.8099 35.7861 70.5993 35.0279 70.613 34.2562C70.6267 33.4845 70.8641 32.7347 71.2946 32.1035C71.7251 31.4723 72.329 30.9887 73.0283 30.715L126.469 9.79421C127.33 9.4557 128.282 9.45779 129.141 9.80008L181.866 30.7208C182.561 30.9967 183.161 31.4805 183.589 32.1102C184.016 32.7398 184.252 33.4868 184.265 34.2555C184.279 35.0241 184.07 35.7796 183.666 36.4251C183.261 37.0706 182.679 37.5769 181.994 37.8792L129.269 61.145C128.803 61.3496 128.302 61.4548 127.796 61.4544Z" fill="#FF8A00"/>
<path d="M96.6057 80.9485C99.3627 80.9485 101.598 78.6422 101.598 75.7972C101.598 72.9523 99.3627 70.646 96.6057 70.646C93.8488 70.646 91.6138 72.9523 91.6138 75.7972C91.6138 78.6422 93.8488 80.9485 96.6057 80.9485Z" fill="#3F3D56"/>
<path opacity="0.2" d="M182.176 34.5768L129.451 57.8426C129.04 58.0239 128.597 58.118 128.15 58.1191C127.703 58.1202 127.261 58.0284 126.849 57.8491L73.4083 34.5836C72.7372 34.2984 72.1773 33.7905 71.8171 33.1403C71.5814 33.5619 71.4354 34.0305 71.3887 34.5148C71.342 34.9992 71.3957 35.4882 71.5462 35.9495C71.6967 36.4108 71.9406 36.8338 72.2616 37.1904C72.5827 37.547 72.9736 37.829 73.4083 38.0177L126.849 61.2832C127.261 61.4625 127.703 61.5544 128.15 61.5533C128.597 61.5522 129.04 61.4581 129.451 61.2767L182.176 38.0109C182.609 37.8205 182.997 37.5376 183.316 37.1809C183.635 36.8241 183.877 36.4017 184.026 35.9414C184.175 35.4811 184.228 34.9934 184.18 34.5105C184.133 34.0277 183.987 33.5606 183.753 33.1402C183.395 33.7853 182.841 34.2903 182.176 34.5768Z" fill="black"/>
<path d="M97.0252 75.7771C97.2458 75.7771 97.4575 75.6867 97.6135 75.5256C97.7695 75.3646 97.8572 75.1463 97.8572 74.9186V46.1905L125.297 35.875C125.518 35.8784 125.731 35.7912 125.889 35.6326C126.047 35.474 126.138 35.2569 126.142 35.0292C126.145 34.8015 126.06 34.5818 125.907 34.4184C125.753 34.255 125.543 34.1613 125.322 34.1579L97.882 44.4734C97.6611 44.4682 97.4416 44.5092 97.2366 44.5941C97.0316 44.679 96.8455 44.806 96.6894 44.9672C96.5317 45.1266 96.4065 45.317 96.3213 45.5271C96.2361 45.7372 96.1925 45.9627 96.1932 46.1905V74.9186C96.1932 75.1462 96.2809 75.3646 96.4369 75.5256C96.5929 75.6866 96.8045 75.7771 97.0252 75.7771Z" fill="#3F3D56"/>
</svg>
