<svg width="1372" height="559" viewBox="0 0 1372 559" fill="none" xmlns="http://www.w3.org/2000/svg">
<g clip-path="url(#clip0)">
<path d="M39.3698 493.434C44.1894 495.275 49.3642 495.736 54.3954 494.773C59.4267 493.81 64.145 491.454 68.0957 487.934C78.1569 478.754 81.3121 463.636 83.8781 449.634L91.4699 408.217L75.5758 420.113C64.1449 428.667 52.4573 437.497 44.5434 449.888C36.6295 462.278 33.1769 479.194 39.5336 492.602" fill="#FFCE99"/>
<path d="M41.824 546.46C39.8235 530.618 37.7652 514.571 39.1718 498.56C40.4183 484.339 44.4098 470.453 52.5359 459.062C56.8492 453.028 62.0977 447.858 68.0455 443.785C69.5961 442.722 71.0235 445.392 69.4796 446.452C59.1881 453.521 51.2279 463.96 46.7466 476.264C41.7975 489.945 41.0028 504.861 41.8553 519.395C42.3705 528.184 43.4655 536.916 44.5652 545.637C44.652 546.032 44.5978 546.447 44.4135 546.8C44.2293 547.152 43.9286 547.416 43.5725 547.537C43.2092 547.643 42.822 547.589 42.4948 547.387C42.1676 547.185 41.927 546.851 41.8249 546.458L41.824 546.46Z" fill="#F2F2F2"/>
<path d="M56.2234 521.04C58.2901 524.456 61.1314 527.235 64.4733 529.11C67.8153 530.986 71.5453 531.894 75.3039 531.747C84.9655 531.249 93.0167 523.923 100.264 516.965L121.704 496.39L107.515 495.651C97.3105 495.12 86.8429 494.622 77.1236 498.046C67.4043 501.47 58.4409 509.699 56.6639 520.634" fill="#FFCE99"/>
<path d="M36.1691 555.566C45.8003 537.043 56.9707 516.457 76.9322 509.877C82.4819 508.054 88.3012 507.401 94.0766 507.953C95.8971 508.124 95.4425 511.174 93.6257 511.004C83.9445 510.13 74.2819 512.909 66.2647 518.872C58.728 524.815 52.3385 532.31 47.4589 540.93C44.3444 546.085 41.5549 551.458 38.7654 556.824C37.8741 558.539 35.2674 557.301 36.1691 555.566Z" fill="#F2F2F2"/>
<path d="M920.351 469.221C926.988 471.757 934.114 472.392 941.042 471.066C947.971 469.739 954.468 466.496 959.909 461.648C973.763 449.007 978.108 428.188 981.642 408.907L992.096 351.873L970.209 368.254C954.468 380.034 938.373 392.193 927.476 409.256C916.578 426.318 911.823 449.612 920.577 468.076" fill="#FFCE99"/>
<path d="M923.731 542.241C920.976 520.426 918.142 498.329 920.079 476.28C921.795 456.698 927.292 437.575 938.482 421.889C944.421 413.58 951.649 406.461 959.839 400.852C961.975 399.388 963.94 403.065 961.814 404.525C947.642 414.259 936.68 428.634 930.509 445.577C923.694 464.418 922.6 484.957 923.774 504.971C924.483 517.075 925.991 529.099 927.506 541.109C927.625 541.652 927.55 542.224 927.297 542.71C927.043 543.195 926.629 543.558 926.139 543.725C925.638 543.871 925.105 543.797 924.654 543.519C924.204 543.241 923.873 542.781 923.732 542.239L923.731 542.241Z" fill="#F2F2F2"/>
<path d="M943.56 507.237C946.406 511.941 950.318 515.768 954.92 518.351C959.522 520.933 964.659 522.184 969.835 521.982C983.139 521.296 994.226 511.207 1004.21 501.626L1033.73 473.292L1014.19 472.275C1000.14 471.544 985.724 470.858 972.34 475.573C958.956 480.289 946.613 491.619 944.166 506.678" fill="#FFCE99"/>
<path d="M915.944 554.782C929.206 529.275 944.589 500.927 972.077 491.866C979.719 489.355 987.733 488.456 995.686 489.216C998.193 489.451 997.567 493.651 995.065 493.417C981.733 492.214 968.428 496.04 957.387 504.251C946.763 512.111 938.491 523.039 931.49 534.627C927.202 541.726 923.36 549.125 919.519 556.514C918.292 558.876 914.702 557.171 915.944 554.782Z" fill="#F2F2F2"/>
<path d="M796.046 85.4247C794.647 84.7626 793.522 83.5646 792.883 82.0588C792.244 80.553 792.137 78.8445 792.582 77.2585C792.654 77.0153 792.7 76.7638 792.717 76.5091C792.758 75.7824 792.582 75.0609 792.216 74.4512C791.85 73.8416 791.313 73.3764 790.685 73.1244C790.056 72.8725 789.37 72.8472 788.728 73.0524C788.085 73.2575 787.52 73.6822 787.117 74.2635C786.978 74.4698 786.863 74.6931 786.772 74.9288C786.163 76.449 785.061 77.6727 783.675 78.367C782.29 79.0612 780.718 79.1775 779.259 78.6937C779.035 78.6155 778.804 78.5661 778.57 78.5468C777.901 78.5026 777.237 78.6936 776.676 79.0915C776.116 79.4895 775.687 80.0731 775.456 80.7561C775.224 81.4391 775.201 82.1851 775.389 82.8836C775.578 83.5821 775.969 84.1959 776.504 84.6341C776.693 84.7849 776.899 84.9107 777.116 85.0091C778.514 85.6712 779.64 86.8692 780.279 88.375C780.918 89.8808 781.025 91.5893 780.58 93.1753C780.508 93.4184 780.462 93.6699 780.444 93.9246C780.404 94.6513 780.579 95.3729 780.945 95.9825C781.312 96.5921 781.849 97.0573 782.477 97.3093C783.105 97.5612 783.792 97.5865 784.434 97.3813C785.077 97.1762 785.642 96.7514 786.045 96.1701C786.183 95.9639 786.299 95.7406 786.39 95.5049C786.999 93.9846 788.101 92.761 789.486 92.0667C790.872 91.3725 792.444 91.2562 793.903 91.7399C794.126 91.8182 794.358 91.8675 794.592 91.8868C795.261 91.9311 795.925 91.7401 796.485 91.3422C797.046 90.9443 797.474 90.3606 797.706 89.6776C797.938 88.9946 797.961 88.2486 797.772 87.5501C797.584 86.8516 797.193 86.2378 796.658 85.7995C796.468 85.6488 796.263 85.523 796.046 85.4247Z" fill="#55018A" fill-opacity="0.49"/>
<path d="M914.468 385.152C913.069 384.49 911.943 383.292 911.305 381.786C910.666 380.28 910.559 378.571 911.004 376.985C911.076 376.742 911.121 376.491 911.139 376.236C911.18 375.509 911.004 374.788 910.638 374.178C910.272 373.569 909.735 373.103 909.107 372.851C908.478 372.6 907.792 372.574 907.149 372.779C906.507 372.985 905.942 373.409 905.539 373.991C905.4 374.197 905.284 374.42 905.194 374.656C904.585 376.176 903.483 377.4 902.097 378.094C900.712 378.788 899.14 378.905 897.681 378.421C897.457 378.342 897.226 378.293 896.991 378.274C896.323 378.23 895.659 378.421 895.098 378.819C894.537 379.217 894.109 379.8 893.877 380.483C893.646 381.166 893.622 381.912 893.811 382.611C894 383.309 894.391 383.923 894.925 384.361C895.115 384.512 895.321 384.638 895.537 384.736C896.936 385.398 898.062 386.596 898.701 388.102C899.339 389.608 899.446 391.316 899.001 392.902C898.929 393.145 898.884 393.397 898.866 393.652C898.825 394.378 899.001 395.1 899.367 395.709C899.733 396.319 900.27 396.784 900.899 397.036C901.527 397.288 902.213 397.314 902.856 397.108C903.499 396.903 904.063 396.478 904.466 395.897C904.605 395.691 904.721 395.468 904.811 395.232C905.421 393.712 906.523 392.488 907.908 391.794C909.293 391.1 910.865 390.983 912.324 391.467C912.548 391.545 912.78 391.594 913.014 391.614C913.683 391.658 914.346 391.467 914.907 391.069C915.468 390.671 915.896 390.088 916.128 389.405C916.36 388.722 916.383 387.976 916.194 387.277C916.005 386.579 915.615 385.965 915.08 385.527C914.89 385.376 914.685 385.25 914.468 385.152Z" fill="#FEE2C4"/>
<path d="M293.6 210.464C292.201 209.802 291.075 208.604 290.437 207.098C289.798 205.593 289.691 203.884 290.136 202.298C290.208 202.055 290.253 201.803 290.271 201.549C290.312 200.822 290.136 200.1 289.77 199.491C289.404 198.881 288.867 198.416 288.239 198.164C287.61 197.912 286.924 197.887 286.281 198.092C285.639 198.297 285.074 198.722 284.671 199.303C284.532 199.509 284.416 199.733 284.326 199.968C283.717 201.489 282.614 202.712 281.229 203.407C279.844 204.101 278.272 204.217 276.813 203.733C276.589 203.655 276.358 203.606 276.123 203.586C275.455 203.542 274.791 203.733 274.23 204.131C273.669 204.529 273.241 205.113 273.009 205.796C272.778 206.479 272.754 207.225 272.943 207.923C273.132 208.622 273.523 209.235 274.057 209.674C274.247 209.824 274.453 209.95 274.669 210.049C276.068 210.711 277.194 211.909 277.833 213.415C278.471 214.92 278.578 216.629 278.133 218.215C278.061 218.458 278.016 218.709 277.998 218.964C277.957 219.691 278.133 220.412 278.499 221.022C278.865 221.632 279.402 222.097 280.031 222.349C280.659 222.601 281.345 222.626 281.988 222.421C282.631 222.216 283.195 221.791 283.598 221.21C283.737 221.003 283.853 220.78 283.943 220.544C284.553 219.024 285.655 217.801 287.04 217.106C288.425 216.412 289.997 216.296 291.456 216.779C291.68 216.858 291.912 216.907 292.146 216.926C292.814 216.971 293.478 216.78 294.039 216.382C294.6 215.984 295.028 215.4 295.26 214.717C295.492 214.034 295.515 213.288 295.326 212.59C295.137 211.891 294.747 211.277 294.212 210.839C294.022 210.688 293.817 210.563 293.6 210.464Z" fill="#FEE2C4"/>
<path d="M552.613 102.973C558.219 102.973 562.763 98.0339 562.763 91.9406C562.763 85.8473 558.219 80.9077 552.613 80.9077C547.007 80.9077 542.462 85.8473 542.462 91.9406C542.462 98.0339 547.007 102.973 552.613 102.973Z" fill="#FEE2C4"/>
<path d="M1093.97 73.5526C1099.58 73.5526 1104.12 68.613 1104.12 62.5197C1104.12 56.4264 1099.58 51.4868 1093.97 51.4868C1088.36 51.4868 1083.82 56.4264 1083.82 62.5197C1083.82 68.613 1088.36 73.5526 1093.97 73.5526Z" fill="#FF8A00"/>
<path d="M305.619 22.0658C311.225 22.0658 315.769 17.1262 315.769 11.0329C315.769 4.93959 311.225 0 305.619 0C300.013 0 295.469 4.93959 295.469 11.0329C295.469 17.1262 300.013 22.0658 305.619 22.0658Z" fill="#55018A" fill-opacity="0.49"/>
<path d="M266.584 523.494C306.823 523.494 339.443 488.038 339.443 444.301C339.443 400.564 306.823 365.108 266.584 365.108C226.345 365.108 193.725 400.564 193.725 444.301C193.725 488.038 226.345 523.494 266.584 523.494Z" fill="#2F2E41"/>
<path d="M255.517 506.452H233.383V549.557H255.517V506.452Z" fill="#2F2E41"/>
<path d="M299.785 506.452H277.651V549.557H299.785V506.452Z" fill="#2F2E41"/>
<path d="M251.828 557.577C262.015 557.577 270.273 554.211 270.273 550.058C270.273 545.906 262.015 542.54 251.828 542.54C241.641 542.54 233.383 545.906 233.383 550.058C233.383 554.211 241.641 557.577 251.828 557.577Z" fill="#2F2E41"/>
<path d="M296.097 556.575C306.284 556.575 314.542 553.209 314.542 549.056C314.542 544.904 306.284 541.538 296.097 541.538C285.909 541.538 277.651 544.904 277.651 549.056C277.651 553.209 285.909 556.575 296.097 556.575Z" fill="#2F2E41"/>
<path d="M345.097 409.695C360.876 392.531 369.648 374.252 364.691 368.868C359.734 363.484 342.924 373.034 327.145 390.198C311.366 407.361 302.593 425.64 307.551 431.024C312.508 436.408 329.318 426.859 345.097 409.695Z" fill="#2F2E41"/>
<path d="M207.858 436.541C212.815 431.157 204.042 412.878 188.263 395.714C172.485 378.55 155.675 369.001 150.717 374.385C145.76 379.769 154.533 398.048 170.312 415.212C186.09 432.376 202.9 441.925 207.858 436.541Z" fill="#2F2E41"/>
<path d="M263.519 460.144C277.271 460.144 288.42 448.026 288.42 433.078C288.42 418.13 277.271 406.012 263.519 406.012C249.766 406.012 238.618 418.13 238.618 433.078C238.618 448.026 249.766 460.144 263.519 460.144Z" fill="white"/>
<path d="M263.519 442.1C268.103 442.1 271.819 438.061 271.819 433.078C271.819 428.095 268.103 424.056 263.519 424.056C258.934 424.056 255.218 428.095 255.218 433.078C255.218 438.061 258.934 442.1 263.519 442.1Z" fill="#3F3D56"/>
<path d="M283.286 483.136C284.055 487.729 283.114 492.465 280.67 496.304C278.226 500.143 274.479 502.769 270.254 503.606C266.028 504.442 261.67 503.419 258.139 500.763C254.607 498.106 252.191 494.034 251.421 489.441L251.416 489.407C249.822 479.841 256.627 476.456 265.428 474.724C274.228 472.993 281.693 473.57 283.286 483.136Z" fill="white"/>
<path d="M338.026 527.416C336.386 527.418 334.814 528.127 333.655 529.387C332.495 530.647 331.843 532.356 331.841 534.139V548.182C331.843 549.965 332.495 551.674 333.655 552.934C334.814 554.195 336.386 554.904 338.026 554.906H437.551C439.191 554.904 440.763 554.195 441.923 552.934C443.083 551.674 443.735 549.965 443.737 548.183V534.139C443.735 532.356 443.083 530.647 441.923 529.387C440.763 528.127 439.191 527.418 437.551 527.416H338.026Z" fill="#55018A"/>
<path d="M395.261 518.063C394.645 517.676 393.913 517.572 393.226 517.772C392.539 517.972 391.953 518.46 391.597 519.13L387.898 526.093L384.274 518.307C383.953 517.617 383.393 517.094 382.717 516.853C382.041 516.612 381.305 516.673 380.67 517.022C380.035 517.371 379.554 517.98 379.332 518.715C379.11 519.449 379.166 520.25 379.487 520.94L382.308 526.999H381.274V555.322H395.07V526.999H393.612L396.243 522.046C396.599 521.376 396.695 520.58 396.511 519.833C396.327 519.086 395.877 518.449 395.261 518.063Z" fill="#FF8A00"/>
<path d="M264.708 392.357C251.762 392.343 238.893 390.206 226.534 386.018C225.675 385.717 224.926 385.129 224.394 384.337C223.861 383.545 223.573 382.591 223.57 381.61V349.375C223.571 348.156 224.017 346.988 224.81 346.126C225.603 345.264 226.678 344.779 227.799 344.778H302.235C303.357 344.779 304.432 345.264 305.225 346.126C306.017 346.988 306.464 348.156 306.465 349.375V381.591C306.465 382.58 306.173 383.543 305.631 384.338C305.089 385.132 304.326 385.716 303.456 386.003C290.896 390.174 277.84 392.315 264.708 392.357Z" fill="#FF8A00"/>
<path opacity="0.2" d="M305.619 349.375V354.763L265.339 370.117C264.586 370.399 263.766 370.386 263.021 370.08L224.416 354.321V349.375C224.418 348.4 224.775 347.467 225.409 346.778C226.043 346.088 226.902 345.7 227.799 345.697H302.235C303.132 345.7 303.991 346.088 304.625 346.778C305.259 347.467 305.616 348.4 305.619 349.375Z" fill="black"/>
<path d="M264.211 363.886C263.704 363.887 263.2 363.788 262.725 363.594L205.035 340.049C204.219 339.716 203.518 339.117 203.027 338.335C202.536 337.552 202.28 336.624 202.293 335.677C202.306 334.73 202.587 333.811 203.099 333.044C203.611 332.278 204.328 331.702 205.153 331.396L259.433 311.212C260.31 310.889 261.259 310.884 262.139 311.199L322.72 333.149C323.557 333.452 324.286 334.032 324.804 334.808C325.323 335.584 325.605 336.516 325.612 337.475C325.619 338.434 325.35 339.371 324.842 340.155C324.335 340.939 323.614 341.531 322.782 341.848L265.61 363.629C265.16 363.8 264.688 363.887 264.211 363.886Z" fill="#FF8A00"/>
<path d="M211.728 362.247H210.036V335.584H261.634V337.423H211.728V362.247Z" fill="#3F3D56"/>
<path d="M210.882 367.763C212.75 367.763 214.265 366.116 214.265 364.085C214.265 362.054 212.75 360.408 210.882 360.408C209.013 360.408 207.498 362.054 207.498 364.085C207.498 366.116 209.013 367.763 210.882 367.763Z" fill="#3F3D56"/>
<path d="M687.827 523.494C728.066 523.494 760.686 488.038 760.686 444.301C760.686 400.564 728.066 365.108 687.827 365.108C647.588 365.108 614.968 400.564 614.968 444.301C614.968 488.038 647.588 523.494 687.827 523.494Z" fill="#2F2E41"/>
<path d="M676.76 506.452H654.625V549.557H676.76V506.452Z" fill="#2F2E41"/>
<path d="M721.028 506.452H698.894V549.557H721.028V506.452Z" fill="#2F2E41"/>
<path d="M673.071 557.577C683.258 557.577 691.516 554.211 691.516 550.058C691.516 545.906 683.258 542.54 673.071 542.54C662.884 542.54 654.625 545.906 654.625 550.058C654.625 554.211 662.884 557.577 673.071 557.577Z" fill="#2F2E41"/>
<path d="M717.339 556.575C727.526 556.575 735.785 553.209 735.785 549.056C735.785 544.904 727.526 541.538 717.339 541.538C707.152 541.538 698.894 544.904 698.894 549.056C698.894 553.209 707.152 556.575 717.339 556.575Z" fill="#2F2E41"/>
<path d="M766.34 409.695C782.118 392.531 790.891 374.253 785.934 368.868C780.976 363.484 764.166 373.034 748.388 390.198C732.609 407.361 723.836 425.64 728.794 431.024C733.751 436.408 750.561 426.859 766.34 409.695Z" fill="#2F2E41"/>
<path d="M622.795 483.205C635.527 463.274 641.182 443.595 635.426 439.251C629.67 434.906 614.682 447.541 601.95 467.472C589.218 487.402 583.563 507.081 589.319 511.425C595.075 515.77 610.063 503.135 622.795 483.205Z" fill="#2F2E41"/>
<path d="M684.762 460.144C698.514 460.144 709.663 448.026 709.663 433.078C709.663 418.13 698.514 406.012 684.762 406.012C671.009 406.012 659.86 418.13 659.86 433.078C659.86 448.026 671.009 460.144 684.762 460.144Z" fill="white"/>
<path d="M693.22 432.906C697.804 432.906 701.521 428.867 701.521 423.884C701.521 418.902 697.804 414.862 693.22 414.862C688.636 414.862 684.92 418.902 684.92 423.884C684.92 428.867 688.636 432.906 693.22 432.906Z" fill="#3F3D56"/>
<path d="M714.616 483.136C717.059 492.7 708.161 501.865 694.742 503.606C681.324 505.347 668.465 499.005 666.022 489.441L666.014 489.407C663.584 479.841 673.961 476.456 687.382 474.724C700.803 472.993 712.187 473.57 714.616 483.136Z" fill="white"/>
<path d="M662.334 397.693C650.318 402.929 637.644 406.164 624.74 407.291C623.84 407.36 622.943 407.117 622.178 406.599C621.412 406.08 620.817 405.311 620.477 404.403L609.413 374.495C608.996 373.364 609.009 372.099 609.449 370.977C609.889 369.856 610.719 368.971 611.759 368.515L680.822 338.331C681.863 337.877 683.027 337.891 684.058 338.369C685.089 338.847 685.904 339.751 686.324 340.881L697.381 370.771C697.721 371.689 697.78 372.701 697.55 373.658C697.32 374.615 696.813 375.466 696.103 376.085C685.882 385.048 674.504 392.328 662.334 397.693Z" fill="#FF8A00"/>
<path opacity="0.2" d="M685.539 341.224L687.388 346.223L655.286 376.802C654.684 377.369 653.919 377.69 653.123 377.708L611.896 378.741L610.198 374.152C609.866 373.247 609.877 372.235 610.229 371.339C610.58 370.442 611.244 369.734 612.075 369.368L681.138 339.184C681.97 338.823 682.901 338.835 683.725 339.217C684.55 339.599 685.202 340.321 685.539 341.224Z" fill="black"/>
<path d="M652.102 371.478C651.631 371.685 651.13 371.797 650.622 371.811L589.016 373.358C588.144 373.38 587.289 373.109 586.565 372.582C585.841 372.055 585.284 371.298 584.971 370.414C584.658 369.53 584.604 368.563 584.815 367.644C585.027 366.725 585.495 365.9 586.155 365.282L629.588 324.544C630.291 323.889 631.171 323.5 632.095 323.435L695.836 319.235C696.717 319.177 697.592 319.42 698.339 319.929C699.087 320.438 699.669 321.189 700.004 322.076C700.339 322.963 700.411 323.941 700.21 324.875C700.008 325.808 699.543 326.65 698.879 327.281L653.311 370.672C652.952 371.013 652.543 371.286 652.102 371.478Z" fill="#FF8A00"/>
<path d="M602.844 391.239L601.274 391.925L592.124 367.188L639.997 346.264L640.628 347.97L594.323 368.208L602.844 391.239Z" fill="#3F3D56"/>
<path d="M602.69 396.966C604.559 396.966 606.074 395.319 606.074 393.288C606.074 391.257 604.559 389.611 602.69 389.611C600.822 389.611 599.307 391.257 599.307 393.288C599.307 395.319 600.822 396.966 602.69 396.966Z" fill="#3F3D56"/>
<path d="M965.2 257.193C954.218 249.744 944.332 240.536 935.876 229.881C935.294 229.132 934.944 228.202 934.877 227.224C934.81 226.246 935.03 225.27 935.504 224.436L951.179 197.072C951.772 196.038 952.719 195.302 953.811 195.026C954.903 194.75 956.052 194.956 957.004 195.599L1020.19 238.362C1021.15 239.008 1021.82 240.037 1022.08 241.224C1022.33 242.411 1022.14 243.659 1021.55 244.694L1005.88 272.043C1005.4 272.883 1004.69 273.532 1003.84 273.895C1002.99 274.258 1002.06 274.316 1001.18 274.059C988.493 270.385 976.369 264.702 965.2 257.193Z" fill="#FF8A00"/>
<path opacity="0.2" d="M1020.83 244.208L1018.21 248.782L976.55 238.675C975.774 238.483 975.084 238 974.601 237.313L949.491 201.756L951.897 197.557C952.373 196.732 953.13 196.144 954.003 195.924C954.877 195.703 955.795 195.867 956.557 196.379L1019.75 239.143C1020.51 239.66 1021.05 240.483 1021.25 241.433C1021.45 242.382 1021.3 243.38 1020.83 244.208Z" fill="black"/>
<path d="M978.623 232.739C978.192 232.447 977.813 232.074 977.504 231.637L939.979 178.506C939.449 177.755 939.145 176.844 939.109 175.898C939.073 174.952 939.306 174.016 939.778 173.22C940.249 172.423 940.935 171.805 941.742 171.448C942.55 171.092 943.438 171.015 944.287 171.228L1000.18 185.277C1001.08 185.507 1001.89 186.049 1002.48 186.821L1043.24 240.258C1043.8 240.997 1044.14 241.908 1044.2 242.864C1044.26 243.82 1044.05 244.774 1043.59 245.592C1043.13 246.41 1042.45 247.05 1041.63 247.425C1040.82 247.799 1039.92 247.888 1039.06 247.679L979.936 233.323C979.471 233.21 979.028 233.012 978.623 232.739Z" fill="#FF8A00"/>
<path d="M934.867 201.196L933.43 200.223L946.396 177.589L990.198 207.232L989.303 208.792L946.937 180.121L934.867 201.196Z" fill="#3F3D56"/>
<path d="M933.255 205.948C935.123 205.948 936.638 204.301 936.638 202.27C936.638 200.239 935.123 198.593 933.255 198.593C931.386 198.593 929.871 200.239 929.871 202.27C929.871 204.301 931.386 205.948 933.255 205.948Z" fill="#3F3D56"/>
<path d="M1141.46 433.392C1181.7 433.392 1214.32 397.936 1214.32 354.199C1214.32 310.462 1181.7 275.006 1141.46 275.006C1101.22 275.006 1068.6 310.462 1068.6 354.199C1068.6 397.936 1101.22 433.392 1141.46 433.392Z" fill="#2F2E41"/>
<path d="M1191.97 395.261L1173.09 407.807L1193.77 444.587L1212.65 432.041L1191.97 395.261Z" fill="#2F2E41"/>
<path d="M1154.2 420.354L1135.31 432.899L1155.99 469.679L1174.88 457.134L1154.2 420.354Z" fill="#2F2E41"/>
<path d="M1200.76 449.339C1209.45 443.565 1214.89 436.012 1212.89 432.469C1210.9 428.926 1202.24 430.735 1193.55 436.509C1184.86 442.283 1179.42 449.836 1181.42 453.379C1183.41 456.922 1192.07 455.113 1200.76 449.339Z" fill="#2F2E41"/>
<path d="M1162.51 473.575C1171.2 467.801 1176.63 460.248 1174.64 456.705C1172.65 453.162 1163.99 454.971 1155.29 460.745C1146.6 466.519 1141.17 474.072 1143.16 477.615C1145.15 481.158 1153.82 479.35 1162.51 473.575Z" fill="#2F2E41"/>
<path d="M1100.5 340.923C1105.45 335.538 1096.68 317.26 1080.9 300.096C1065.12 282.932 1048.31 273.383 1043.36 278.767C1038.4 284.151 1047.17 302.43 1062.95 319.593C1078.73 336.757 1095.54 346.307 1100.5 340.923Z" fill="#2F2E41"/>
<path d="M1239.97 421.323C1245.73 416.979 1240.07 397.3 1227.34 377.37C1214.61 357.439 1199.62 344.804 1193.86 349.149C1188.11 353.493 1193.76 373.172 1206.49 393.102C1219.23 413.033 1234.21 425.668 1239.97 421.323Z" fill="#2F2E41"/>
<path d="M1119.15 359.009C1132.9 359.009 1144.05 346.891 1144.05 331.943C1144.05 316.995 1132.9 304.877 1119.15 304.877C1105.4 304.877 1094.25 316.995 1094.25 331.943C1094.25 346.891 1105.4 359.009 1119.15 359.009Z" fill="white"/>
<path d="M1110.69 331.772C1115.28 331.772 1118.99 327.732 1118.99 322.75C1118.99 317.767 1115.28 313.728 1110.69 313.728C1106.11 313.728 1102.39 317.767 1102.39 322.75C1102.39 327.732 1106.11 331.772 1110.69 331.772Z" fill="#3F3D56"/>
<path d="M1087.09 377.092C1082.36 385.501 1088.66 396.877 1101.14 402.501C1113.62 408.125 1127.57 405.868 1132.29 397.459L1132.31 397.429C1137.02 389.014 1127.87 382.719 1115.38 377.103C1102.89 371.487 1091.8 368.678 1087.09 377.092Z" fill="white"/>
<path d="M1117.02 254.763C1123.52 226.285 1152.24 209.527 1181.16 217.332C1210.08 225.137 1228.25 254.55 1221.74 283.027C1215.23 311.505 1193.65 311.597 1164.73 303.792C1135.81 295.987 1110.51 283.241 1117.02 254.763Z" fill="#FFCE99"/>
<path d="M1370.31 559H1.69174C1.24306 559 0.81276 558.806 0.495497 558.461C0.178235 558.116 0 557.649 0 557.161C0 556.673 0.178235 556.206 0.495497 555.861C0.81276 555.516 1.24306 555.322 1.69174 555.322H1370.31C1370.76 555.322 1371.19 555.516 1371.5 555.861C1371.82 556.206 1372 556.673 1372 557.161C1372 557.649 1371.82 558.116 1371.5 558.461C1371.19 558.806 1370.76 559 1370.31 559Z" fill="#CBCBCB"/>
</g>
<defs>
<clipPath id="clip0">
<rect width="1372" height="559" fill="white"/>
</clipPath>
</defs>
</svg>
