<svg width="88" height="45" viewBox="0 0 88 45" fill="none" xmlns="http://www.w3.org/2000/svg">
<mask id="path-1-inside-1" fill="white">
<path d="M33.2275 36.6729C33.2146 36.6729 33.2064 36.6726 33.2036 36.6724L31.6563 36.6726V36.4445H33.2092C33.2451 36.4458 33.9787 36.4665 34.6545 35.6464C35.6617 34.4242 36.4888 31.3986 34.7094 23.9253C32.3169 13.8765 34.3124 4.99886 35.2814 1.64846C35.3291 1.48271 35.3377 1.30812 35.3063 1.13849C35.275 0.968865 35.2046 0.80885 35.1008 0.671089C34.997 0.533328 34.8626 0.421595 34.7082 0.344719C34.5537 0.267843 34.3836 0.227932 34.2111 0.228137H11.1038C10.9282 0.228372 10.755 0.270026 10.5984 0.349719C10.4419 0.429411 10.3063 0.544897 10.2027 0.686801C9.79225 1.25146 9.22894 2.33621 8.87643 4.29763L8.65192 4.25731C9.01205 2.25328 9.59369 1.13661 10.0182 0.552682C10.143 0.381693 10.3063 0.242537 10.4949 0.146507C10.6836 0.0504783 10.8922 0.000284016 11.1038 6.20894e-07H34.2111C34.4189 -0.000199422 34.624 0.0479413 34.8101 0.14062C34.9961 0.233298 35.1581 0.367974 35.2832 0.534009C35.4082 0.700043 35.493 0.892886 35.5307 1.0973C35.5684 1.30172 35.5581 1.51211 35.5005 1.71185C34.5365 5.04486 32.5514 13.8764 34.9314 23.8725C36.7358 31.4508 35.8683 34.542 34.823 35.8007C34.1334 36.6309 33.3737 36.6729 33.2275 36.6729Z"/>
</mask>
<path d="M33.2275 36.6729C33.2146 36.6729 33.2064 36.6726 33.2036 36.6724L31.6563 36.6726V36.4445H33.2092C33.2451 36.4458 33.9787 36.4665 34.6545 35.6464C35.6617 34.4242 36.4888 31.3986 34.7094 23.9253C32.3169 13.8765 34.3124 4.99886 35.2814 1.64846C35.3291 1.48271 35.3377 1.30812 35.3063 1.13849C35.275 0.968865 35.2046 0.80885 35.1008 0.671089C34.997 0.533328 34.8626 0.421595 34.7082 0.344719C34.5537 0.267843 34.3836 0.227932 34.2111 0.228137H11.1038C10.9282 0.228372 10.755 0.270026 10.5984 0.349719C10.4419 0.429411 10.3063 0.544897 10.2027 0.686801C9.79225 1.25146 9.22894 2.33621 8.87643 4.29763L8.65192 4.25731C9.01205 2.25328 9.59369 1.13661 10.0182 0.552682C10.143 0.381693 10.3063 0.242537 10.4949 0.146507C10.6836 0.0504783 10.8922 0.000284016 11.1038 6.20894e-07H34.2111C34.4189 -0.000199422 34.624 0.0479413 34.8101 0.14062C34.9961 0.233298 35.1581 0.367974 35.2832 0.534009C35.4082 0.700043 35.493 0.892886 35.5307 1.0973C35.5684 1.30172 35.5581 1.51211 35.5005 1.71185C34.5365 5.04486 32.5514 13.8764 34.9314 23.8725C36.7358 31.4508 35.8683 34.542 34.823 35.8007C34.1334 36.6309 33.3737 36.6729 33.2275 36.6729Z" fill="#4D546F"/>
<path d="M33.2036 36.6724L33.3795 33.6776L33.2915 33.6724L33.2033 33.6724L33.2036 36.6724ZM31.6563 36.6726H28.6563V39.6729L31.6567 39.6726L31.6563 36.6726ZM31.6563 36.4445V33.4445H28.6563V36.4445H31.6563ZM33.2092 36.4445L33.316 33.4464L33.2626 33.4445H33.2092V36.4445ZM34.6545 35.6464L36.9696 37.5543L36.9697 37.5542L34.6545 35.6464ZM34.7094 23.9253L31.791 24.6202V24.6202L34.7094 23.9253ZM35.2814 1.64846L38.1633 2.48195L38.1642 2.47878L35.2814 1.64846ZM34.2111 0.228137V3.22814L34.2146 3.22813L34.2111 0.228137ZM11.1038 0.228137V-2.77187L11.0998 -2.77186L11.1038 0.228137ZM10.2027 0.686801L7.7795 -1.0818L7.77618 -1.07723L10.2027 0.686801ZM8.87643 4.29763L8.3461 7.25039L11.2985 7.78066L11.8291 4.82829L8.87643 4.29763ZM8.65192 4.25731L5.69922 3.72669L5.16855 6.67968L8.12158 7.21006L8.65192 4.25731ZM10.0182 0.552682L7.59473 -1.21558L7.59171 -1.21142L10.0182 0.552682ZM11.1038 6.20894e-07V-3L11.0998 -3L11.1038 6.20894e-07ZM34.2111 6.20894e-07V3L34.214 3L34.2111 6.20894e-07ZM35.5005 1.71185L38.3824 2.54537L38.3832 2.54261L35.5005 1.71185ZM34.9314 23.8725L37.8498 23.1776L37.8498 23.1776L34.9314 23.8725ZM34.823 35.8007L37.1307 37.7175L37.1308 37.7174L34.823 35.8007ZM33.2275 33.6729C33.2464 33.6729 33.267 33.6732 33.2893 33.6738C33.308 33.6742 33.3394 33.6753 33.3795 33.6776L33.0277 39.6673C33.1022 39.6717 33.1707 39.6729 33.2275 39.6729V33.6729ZM33.2033 33.6724L31.656 33.6726L31.6567 39.6726L33.2039 39.6724L33.2033 33.6724ZM34.6563 36.6726V36.4445H28.6563V36.6726H34.6563ZM31.6563 39.4445H33.2092V33.4445H31.6563V39.4445ZM33.1024 39.4426C33.6848 39.4633 35.4911 39.3484 36.9696 37.5543L32.3394 33.7384C32.368 33.7038 32.4787 33.6011 32.6838 33.5279C32.8668 33.4626 33.0748 33.4378 33.316 33.4464L33.1024 39.4426ZM36.9697 37.5542C38.0044 36.2986 38.5875 34.5514 38.7216 32.3091C38.8556 30.0686 38.5565 27.1305 37.6279 23.2304L31.791 24.6202C32.6418 28.1933 32.8188 30.5047 32.7323 31.9509C32.6459 33.3952 32.3118 33.772 32.3393 33.7385L36.9697 37.5542ZM37.6279 23.2304C35.405 13.8943 37.2638 5.5919 38.1633 2.48195L32.3995 0.814976C31.361 4.40582 29.2288 13.8586 31.791 24.6202L37.6279 23.2304ZM38.1642 2.47878C38.3407 1.86603 38.3722 1.22061 38.2564 0.593523L32.3562 1.68346C32.3031 1.39562 32.3176 1.09939 32.3986 0.818147L38.1642 2.47878ZM38.2564 0.593523C38.1406 -0.0335922 37.8805 -0.625125 37.4967 -1.13436L32.7049 2.47654C32.5288 2.24283 32.4094 1.97132 32.3562 1.68346L38.2564 0.593523ZM37.4967 -1.13436C37.113 -1.64363 36.616 -2.05668 36.0452 -2.34088L33.3712 3.03032C33.1091 2.89987 32.8811 2.71028 32.7049 2.47654L37.4967 -1.13436ZM36.0452 -2.34088C35.4743 -2.62508 34.8452 -2.77262 34.2075 -2.77186L34.2146 3.22813C33.922 3.22848 33.6332 3.16076 33.3712 3.03032L36.0452 -2.34088ZM34.2111 -2.77186H11.1038V3.22814H34.2111V-2.77186ZM11.0998 -2.77186C10.4525 -2.77099 9.81447 -2.61751 9.23757 -2.32386L11.9593 3.0233C11.6955 3.15756 11.4038 3.22774 11.1079 3.22813L11.0998 -2.77186ZM9.23757 -2.32386C8.66068 -2.03022 8.16114 -1.60469 7.77951 -1.08179L12.626 2.4554C12.4515 2.69448 12.2231 2.88904 11.9593 3.0233L9.23757 -2.32386ZM7.77618 -1.07723C7.05201 -0.0810699 6.34068 1.44699 5.92374 3.76698L11.8291 4.82829C12.1172 3.22543 12.5325 2.58399 12.6293 2.45083L7.77618 -1.07723ZM9.40676 1.34488L9.18225 1.30456L8.12158 7.21006L8.3461 7.25039L9.40676 1.34488ZM11.6046 4.78793C11.8992 3.14851 12.3309 2.47333 12.4447 2.31678L7.59171 -1.21142C6.85647 -0.200112 6.12488 1.35804 5.69922 3.72669L11.6046 4.78793ZM12.4417 2.32095C12.2884 2.53105 12.0877 2.70202 11.856 2.81999L9.13387 -2.52698C8.52489 -2.21695 7.99756 -1.76767 7.59474 -1.21558L12.4417 2.32095ZM11.856 2.81999C11.6242 2.93798 11.3679 2.99965 11.1079 3L11.0998 -3C10.4164 -2.99908 9.74288 -2.83702 9.13387 -2.52698L11.856 2.81999ZM11.1038 3H34.2111V-3H11.1038V3ZM34.214 3C33.9567 3.00025 33.7028 2.94066 33.4725 2.82594L36.1476 -2.5447C35.5452 -2.84478 34.8812 -3.00065 34.2082 -3L34.214 3ZM33.4725 2.82594C33.2422 2.71123 33.0417 2.54453 32.8869 2.33901L37.6794 -1.27099C37.2745 -1.80859 36.7501 -2.24464 36.1476 -2.5447L33.4725 2.82594ZM32.8869 2.33901C32.7321 2.13346 32.6272 1.89475 32.5805 1.64176L38.4809 0.552842C38.3587 -0.108974 38.0844 -0.733369 37.6794 -1.27099L32.8869 2.33901ZM32.5805 1.64176C32.5338 1.38875 32.5466 1.12833 32.6179 0.881084L38.3832 2.54261C38.5696 1.89588 38.603 1.21469 38.4809 0.552842L32.5805 1.64176ZM32.6187 0.878326C31.5851 4.45179 29.4633 13.8586 32.013 24.5674L37.8498 23.1776C35.6395 13.8942 37.488 5.63794 38.3824 2.54537L32.6187 0.878326ZM32.013 24.5674C33.7967 32.0591 32.5663 33.8224 32.5151 33.884L37.1308 37.7174C39.1704 35.2617 39.6748 30.8426 37.8498 23.1776L32.013 24.5674ZM32.5152 33.8839C32.51 33.8902 32.5263 33.8696 32.5699 33.8387C32.6128 33.8083 32.6684 33.7776 32.7358 33.7515C32.8652 33.7013 33.0227 33.6729 33.2275 33.6729V39.6729C33.941 39.6729 35.692 39.4497 37.1307 37.7175L32.5152 33.8839Z" fill="#4D546F" mask="url(#path-1-inside-1)"/>
<mask id="path-3-inside-2" fill="white">
<path d="M29.0641 40.8364C29.0511 40.8364 29.043 40.8361 29.0402 40.8359L27.4929 40.8361V40.6079H29.0458C29.0819 40.609 29.8152 40.6299 30.4911 39.8098C31.4983 38.5876 32.3254 35.562 30.546 28.0888C28.1534 18.0399 30.149 9.16231 31.1179 5.81192C31.1657 5.64616 31.1742 5.47157 31.1429 5.30194C31.1116 5.13232 31.0412 4.9723 30.9374 4.83454C30.8336 4.69678 30.6992 4.58505 30.5447 4.50817C30.3903 4.4313 30.2201 4.39139 30.0476 4.39159H6.9404C6.76472 4.39183 6.59157 4.43348 6.43501 4.51317C6.27845 4.59286 6.14287 4.70835 6.03931 4.85025C5.62882 5.41491 5.0655 6.49966 4.71301 8.46109L4.48846 8.42076C4.84861 6.41673 5.43026 5.30006 5.85478 4.71613C5.97954 4.54515 6.14287 4.40599 6.33149 4.30996C6.52012 4.21393 6.72874 4.16374 6.9404 4.16345H30.0476C30.2555 4.16325 30.4606 4.21139 30.6466 4.30407C30.8327 4.39675 30.9947 4.53143 31.1197 4.69746C31.2448 4.8635 31.3295 5.05634 31.3673 5.26076C31.405 5.46517 31.3947 5.67556 31.3371 5.8753C30.3731 9.20832 28.3879 18.0399 30.768 28.036C32.5723 35.6143 31.7049 38.7055 30.6595 39.9642C29.97 40.7943 29.2103 40.8364 29.0641 40.8364Z"/>
</mask>
<path d="M29.0641 40.8364C29.0511 40.8364 29.043 40.8361 29.0402 40.8359L27.4929 40.8361V40.6079H29.0458C29.0819 40.609 29.8152 40.6299 30.4911 39.8098C31.4983 38.5876 32.3254 35.562 30.546 28.0888C28.1534 18.0399 30.149 9.16231 31.1179 5.81192C31.1657 5.64616 31.1742 5.47157 31.1429 5.30194C31.1116 5.13232 31.0412 4.9723 30.9374 4.83454C30.8336 4.69678 30.6992 4.58505 30.5447 4.50817C30.3903 4.4313 30.2201 4.39139 30.0476 4.39159H6.9404C6.76472 4.39183 6.59157 4.43348 6.43501 4.51317C6.27845 4.59286 6.14287 4.70835 6.03931 4.85025C5.62882 5.41491 5.0655 6.49966 4.71301 8.46109L4.48846 8.42076C4.84861 6.41673 5.43026 5.30006 5.85478 4.71613C5.97954 4.54515 6.14287 4.40599 6.33149 4.30996C6.52012 4.21393 6.72874 4.16374 6.9404 4.16345H30.0476C30.2555 4.16325 30.4606 4.21139 30.6466 4.30407C30.8327 4.39675 30.9947 4.53143 31.1197 4.69746C31.2448 4.8635 31.3295 5.05634 31.3673 5.26076C31.405 5.46517 31.3947 5.67556 31.3371 5.8753C30.3731 9.20832 28.3879 18.0399 30.768 28.036C32.5723 35.6143 31.7049 38.7055 30.6595 39.9642C29.97 40.7943 29.2103 40.8364 29.0641 40.8364Z" fill="#4D546F"/>
<path d="M29.0402 40.8359L29.3333 35.8445L29.1866 35.8359L29.0396 35.8359L29.0402 40.8359ZM27.4929 40.8361H22.4929V45.8366L27.4935 45.8361L27.4929 40.8361ZM27.4929 40.6079V35.6079H22.4929V40.6079H27.4929ZM29.0458 40.6079L29.1998 35.6103L29.1228 35.6079H29.0458V40.6079ZM30.4911 39.8098L34.3496 42.9898L34.3498 42.9896L30.4911 39.8098ZM30.546 28.0888L25.682 29.2469L25.682 29.2469L30.546 28.0888ZM31.1179 5.81192L35.9211 7.20107L35.9226 7.19578L31.1179 5.81192ZM30.0476 4.39159V9.39159L30.0536 9.39159L30.0476 4.39159ZM6.9404 4.39159V-0.608414L6.9337 -0.608405L6.9404 4.39159ZM6.03931 4.85025L2.00057 1.90259L1.99504 1.91021L6.03931 4.85025ZM4.71301 8.46109L3.82923 13.3824L8.74989 14.266L9.63417 9.34548L4.71301 8.46109ZM4.48846 8.42076L-0.432698 7.53637L-1.31721 12.4581L3.60469 13.342L4.48846 8.42076ZM5.85478 4.71613L1.81565 1.76902L1.8106 1.77596L5.85478 4.71613ZM6.9404 4.16345V-0.836552L6.93371 -0.836543L6.9404 4.16345ZM30.0476 4.16345V9.16346L30.0525 9.16345L30.0476 4.16345ZM31.3371 5.8753L36.1402 7.2645L36.1416 7.25991L31.3371 5.8753ZM30.768 28.036L35.632 26.8779L35.632 26.8778L30.768 28.036ZM30.6595 39.9642L34.5058 43.1589L34.5059 43.1587L30.6595 39.9642ZM29.0641 35.8364C29.1007 35.8364 29.1391 35.8369 29.1794 35.8379C29.2143 35.8388 29.2675 35.8406 29.3333 35.8445L28.7471 45.8273C28.8672 45.8343 28.9753 45.8364 29.0641 45.8364V35.8364ZM29.0396 35.8359L27.4924 35.8361L27.4935 45.8361L29.0407 45.8359L29.0396 35.8359ZM32.4929 40.8361V40.6079H22.4929V40.8361H32.4929ZM27.4929 45.6079H29.0458V35.6079H27.4929V45.6079ZM28.8917 45.6056C29.8098 45.6338 32.3324 45.4375 34.3496 42.9898L26.6326 36.6299C26.9054 36.2988 27.325 35.9943 27.8486 35.8075C28.3397 35.6323 28.812 35.5984 29.1998 35.6103L28.8917 45.6056ZM34.3498 42.9896C35.7386 41.3043 36.4046 39.1002 36.5546 36.592C36.7044 34.0867 36.3646 30.9398 35.41 26.9306L25.682 29.2469C26.5068 32.711 26.6431 34.8135 26.5724 35.9949C26.5019 37.1733 26.2508 37.0932 26.6324 36.6301L34.3498 42.9896ZM35.41 26.9307C33.3003 18.0696 35.068 10.1507 35.9211 7.20107L26.3148 4.42277C25.2299 8.17392 23.0066 18.0102 25.682 29.2469L35.41 26.9307ZM35.9226 7.19578C36.1849 6.28503 36.2319 5.32573 36.0597 4.39366L26.2261 6.21022C26.1166 5.61741 26.1464 5.00729 26.3133 4.42805L35.9226 7.19578ZM36.0597 4.39366C35.8875 3.46156 35.5009 2.58235 34.9306 1.82546L26.9442 7.84363C26.5815 7.36226 26.3356 6.80308 26.2261 6.21022L36.0597 4.39366ZM34.9306 1.82546C34.3601 1.0685 33.6215 0.454577 32.7731 0.032176L28.3164 8.98417C27.7768 8.71552 27.307 8.32506 26.9442 7.84363L34.9306 1.82546ZM32.7731 0.032176C31.9246 -0.390221 30.9895 -0.609531 30.0417 -0.608406L30.0536 9.39159C29.4507 9.3923 28.856 9.25282 28.3164 8.98417L32.7731 0.032176ZM30.0476 -0.608409H6.9404V9.39159H30.0476V-0.608409ZM6.9337 -0.608405C5.97196 -0.607116 5.02404 -0.379093 4.16688 0.0572081L8.70314 8.96913C8.15911 9.24605 7.55748 9.39077 6.9471 9.39159L6.9337 -0.608405ZM4.16688 0.0572081C3.30978 0.493483 2.56759 1.12571 2.00058 1.90259L10.078 7.79791C9.71816 8.29099 9.24711 8.69224 8.70314 8.96913L4.16688 0.0572081ZM1.99504 1.91021C1.06174 3.19403 0.251738 5.01764 -0.208157 7.57669L9.63417 9.34548C9.87926 7.98169 10.1959 7.63579 10.0836 7.7903L1.99504 1.91021ZM5.59678 3.53981L5.37224 3.49949L3.60469 13.342L3.82923 13.3824L5.59678 3.53981ZM9.40963 9.30516C9.66057 7.90881 9.99228 7.52794 9.89896 7.65631L1.8106 1.77596C0.868233 3.07218 0.0366602 4.92465 -0.432698 7.53637L9.40963 9.30516ZM9.89391 7.66324C9.55523 8.12741 9.11189 8.50513 8.59992 8.76577L4.06307 -0.14585C3.17384 0.306851 2.40385 0.962881 1.81565 1.76903L9.89391 7.66324ZM8.59992 8.76577C8.08792 9.02643 7.52165 9.16268 6.94709 9.16345L6.93371 -0.836543C5.93582 -0.835207 4.95233 -0.598567 4.06307 -0.14585L8.59992 8.76577ZM6.9404 9.16345H30.0476V-0.836547H6.9404V9.16345ZM30.0525 9.16345C29.485 9.164 28.9253 9.03258 28.4174 8.77961L32.8759 -0.171463C31.9959 -0.609789 31.026 -0.837491 30.0428 -0.836545L30.0525 9.16345ZM28.4174 8.77961C27.9095 8.52664 27.4674 8.15903 27.126 7.70579L35.1135 1.68913C34.5219 0.903829 33.7559 0.266863 32.8759 -0.171463L28.4174 8.77961ZM27.126 7.70579C26.7846 7.25251 26.5533 6.7261 26.4503 6.16819L36.2842 4.35332C36.1058 3.38658 35.7051 2.47448 35.1135 1.68913L27.126 7.70579ZM26.4503 6.16819C26.3473 5.61023 26.3755 5.03594 26.5326 4.49069L36.1416 7.25991C36.4138 6.31519 36.4627 5.32012 36.2842 4.35332L26.4503 6.16819ZM26.534 4.4861C25.4541 8.21986 23.2411 18.0101 25.9039 29.1941L35.632 26.8778C33.5348 18.0696 35.2922 10.1968 36.1402 7.2645L26.534 4.4861ZM25.9039 29.194C26.7395 32.7034 26.8713 34.8399 26.7929 36.0457C26.7152 37.2419 26.4567 37.1987 26.8131 36.7696L34.5059 43.1587C37.2083 39.9049 37.4707 34.6005 35.632 26.8779L25.9039 29.194ZM26.8132 36.7695C27.0462 36.4891 27.4023 36.2238 27.8486 36.0505C28.2604 35.8906 28.6739 35.8364 29.0641 35.8364V45.8364C30.1557 45.8364 32.5676 45.4924 34.5058 43.1589L26.8132 36.7695Z" fill="#4D546F" mask="url(#path-3-inside-2)"/>
<mask id="path-5-inside-3" fill="white">
<path d="M26.6044 32.1998C24.224 22.2038 26.2094 13.3715 27.1739 10.0392C27.2313 9.83945 27.2415 9.62909 27.2037 9.42472C27.166 9.22034 27.0812 9.02754 26.9562 8.86151C26.8312 8.69549 26.6693 8.56079 26.4833 8.46803C26.2973 8.37527 26.0923 8.327 25.8844 8.32701H2.77668C2.56511 8.32722 2.35657 8.37733 2.168 8.47328C1.97943 8.56922 1.81616 8.7083 1.69144 8.87921C0.758653 10.1619 -1.1769 14.4155 0.984935 26.1851C2.14105 32.4817 2.12382 36.7746 1.74611 39.6027C1.5342 41.195 1.20733 42.3224 0.911068 43.0827L0.879472 43.1632C0.817075 43.317 0.784539 43.4813 0.783604 43.6473C0.781419 43.8348 0.818995 44.0205 0.893848 44.1924C0.968701 44.3642 1.07913 44.5183 1.21786 44.6443C1.30832 44.7291 1.4107 44.8001 1.52175 44.8552C1.61395 44.9023 1.71149 44.938 1.81226 44.9617C1.91486 44.9867 2.02012 44.9992 2.12574 44.999H24.8769C24.8798 44.999 24.8874 45 24.9009 45C25.0466 45 25.8068 44.9578 26.4961 44.1276C27.541 42.8689 28.4086 39.7781 26.6044 32.1998ZM26.3274 43.9733C25.6515 44.7939 24.9181 44.7728 24.8827 44.7718H2.12574C1.94355 44.7718 1.76414 44.7271 1.6032 44.6417C1.44226 44.5563 1.30469 44.4328 1.20251 44.2819C1.11263 44.1515 1.05226 44.0031 1.02561 43.847C0.998953 43.6908 1.00666 43.5308 1.04818 43.3779C1.05904 43.3335 1.07314 43.2899 1.09035 43.2475C1.42874 42.378 1.67956 41.4769 1.83908 40.5575C2.37978 37.6096 2.48042 33.0607 1.20925 26.1439C-0.936245 14.4615 0.960968 10.2722 1.8755 9.01342C1.97926 8.87172 2.11489 8.75641 2.27143 8.67681C2.42798 8.59721 2.60106 8.55554 2.77668 8.55518H25.8844C26.0568 8.55505 26.2269 8.59501 26.3812 8.67188C26.5355 8.74875 26.6699 8.86043 26.7736 8.99812C26.8774 9.13581 26.9477 9.29573 26.9791 9.46525C27.0104 9.63478 27.002 9.80928 26.9543 9.97497C25.9851 13.3255 23.9901 22.2038 26.383 32.2526C28.1623 39.7254 27.3349 42.751 26.3274 43.9733Z"/>
</mask>
<path d="M26.6044 32.1998C24.224 22.2038 26.2094 13.3715 27.1739 10.0392C27.2313 9.83945 27.2415 9.62909 27.2037 9.42472C27.166 9.22034 27.0812 9.02754 26.9562 8.86151C26.8312 8.69549 26.6693 8.56079 26.4833 8.46803C26.2973 8.37527 26.0923 8.327 25.8844 8.32701H2.77668C2.56511 8.32722 2.35657 8.37733 2.168 8.47328C1.97943 8.56922 1.81616 8.7083 1.69144 8.87921C0.758653 10.1619 -1.1769 14.4155 0.984935 26.1851C2.14105 32.4817 2.12382 36.7746 1.74611 39.6027C1.5342 41.195 1.20733 42.3224 0.911068 43.0827L0.879472 43.1632C0.817075 43.317 0.784539 43.4813 0.783604 43.6473C0.781419 43.8348 0.818995 44.0205 0.893848 44.1924C0.968701 44.3642 1.07913 44.5183 1.21786 44.6443C1.30832 44.7291 1.4107 44.8001 1.52175 44.8552C1.61395 44.9023 1.71149 44.938 1.81226 44.9617C1.91486 44.9867 2.02012 44.9992 2.12574 44.999H24.8769C24.8798 44.999 24.8874 45 24.9009 45C25.0466 45 25.8068 44.9578 26.4961 44.1276C27.541 42.8689 28.4086 39.7781 26.6044 32.1998ZM26.3274 43.9733C25.6515 44.7939 24.9181 44.7728 24.8827 44.7718H2.12574C1.94355 44.7718 1.76414 44.7271 1.6032 44.6417C1.44226 44.5563 1.30469 44.4328 1.20251 44.2819C1.11263 44.1515 1.05226 44.0031 1.02561 43.847C0.998953 43.6908 1.00666 43.5308 1.04818 43.3779C1.05904 43.3335 1.07314 43.2899 1.09035 43.2475C1.42874 42.378 1.67956 41.4769 1.83908 40.5575C2.37978 37.6096 2.48042 33.0607 1.20925 26.1439C-0.936245 14.4615 0.960968 10.2722 1.8755 9.01342C1.97926 8.87172 2.11489 8.75641 2.27143 8.67681C2.42798 8.59721 2.60106 8.55554 2.77668 8.55518H25.8844C26.0568 8.55505 26.2269 8.59501 26.3812 8.67188C26.5355 8.74875 26.6699 8.86043 26.7736 8.99812C26.8774 9.13581 26.9477 9.29573 26.9791 9.46525C27.0104 9.63478 27.002 9.80928 26.9543 9.97497C25.9851 13.3255 23.9901 22.2038 26.383 32.2526C28.1623 39.7254 27.3349 42.751 26.3274 43.9733Z" fill="#091337"/>
<path d="M26.6044 32.1998L31.4685 31.0418L31.4684 31.0416L26.6044 32.1998ZM27.1739 10.0392L31.9768 11.4292L31.9793 11.4206L27.1739 10.0392ZM25.8844 8.32701V13.327H25.8848L25.8844 8.32701ZM2.77668 8.32701V3.32701L2.77179 3.32701L2.77668 8.32701ZM1.69144 8.87921L-2.34747 5.93179L-2.35237 5.93853L1.69144 8.87921ZM0.984935 26.1851L5.90273 25.2822L5.90267 25.2818L0.984935 26.1851ZM1.74611 39.6027L-3.20988 38.9408L-3.21019 38.9431L1.74611 39.6027ZM0.911068 43.0827L5.56563 44.9089L5.56982 44.8982L0.911068 43.0827ZM0.879472 43.1632L5.51281 45.0426L5.52357 45.0161L5.53402 44.9894L0.879472 43.1632ZM0.783604 43.6473L5.78326 43.7056L5.78344 43.6905L5.78352 43.6755L0.783604 43.6473ZM1.21786 44.6443L4.63669 40.9958L4.60872 40.9696L4.58036 40.9438L1.21786 44.6443ZM1.52175 44.8552L3.79387 40.4013L3.76887 40.3886L3.74372 40.3761L1.52175 44.8552ZM1.81226 44.9617L2.99785 40.1043L2.9763 40.099L2.9547 40.0939L1.81226 44.9617ZM2.12574 44.999V39.999L2.1158 39.999L2.12574 44.999ZM26.4961 44.1276L30.343 47.3215L30.3432 47.3213L26.4961 44.1276ZM26.3274 43.9733L22.4692 40.7929L22.4678 40.7946L26.3274 43.9733ZM24.8827 44.7718L25.0177 39.7737L24.9502 39.7718H24.8827V44.7718ZM2.12574 44.7718L2.12429 49.7718H2.12574V44.7718ZM1.20251 44.2819L5.34209 41.4777L5.33087 41.4611L5.31952 41.4447L1.20251 44.2819ZM1.04818 43.3779L5.87332 44.6886L5.8899 44.6276L5.90492 44.5662L1.04818 43.3779ZM1.09035 43.2475L5.7229 45.1289L5.73668 45.095L5.74996 45.0608L1.09035 43.2475ZM1.83908 40.5575L-3.07888 39.6555L-3.08321 39.6791L-3.08731 39.7027L1.83908 40.5575ZM1.20925 26.1439L-3.70851 27.0471L-3.70839 27.0477L1.20925 26.1439ZM1.8755 9.01342L-2.1586 6.05942L-2.1641 6.06694L-2.16958 6.07448L1.8755 9.01342ZM2.77668 8.55518V3.55516L2.76626 3.55519L2.77668 8.55518ZM25.8844 8.55518V13.5552L25.8879 13.5552L25.8844 8.55518ZM26.9543 9.97497L31.7574 11.3643L31.7597 11.3565L26.9543 9.97497ZM26.383 32.2526L31.247 31.0944L31.247 31.0943L26.383 32.2526ZM31.4684 31.0416C29.3709 22.2334 31.1285 14.3601 31.9768 11.4292L22.371 8.64917C21.2903 12.383 19.0772 22.1741 21.7404 33.3581L31.4684 31.0416ZM31.9793 11.4206C32.2507 10.4764 32.299 9.48204 32.1204 8.51589L22.287 10.3335C22.184 9.77614 22.2119 9.20249 22.3685 8.65783L31.9793 11.4206ZM32.1204 8.51589C31.9419 7.54979 31.5413 6.63841 30.9502 5.85362L22.9621 11.8694C22.6212 11.4167 22.39 10.8909 22.287 10.3335L32.1204 8.51589ZM30.9502 5.85362C30.3592 5.06884 29.594 4.43209 28.7148 3.99361L24.2518 12.9424C23.7445 12.6895 23.3031 12.3221 22.9621 11.8694L30.9502 5.85362ZM28.7148 3.99361C27.8356 3.55514 26.8665 3.32694 25.8841 3.32701L25.8848 13.327C25.318 13.3271 24.759 13.1954 24.2518 12.9424L28.7148 3.99361ZM25.8844 3.32701H2.77668V13.327H25.8844V3.32701ZM2.77179 3.32701C1.77376 3.32799 0.790043 3.56438 -0.0994553 4.01697L4.43546 12.9296C3.92309 13.1903 3.35646 13.3264 2.78158 13.327L2.77179 3.32701ZM-0.0994553 4.01697C-0.988966 4.46958 -1.75916 5.12562 -2.34747 5.93179L5.73034 11.8266C5.39147 12.291 4.94783 12.6689 4.43546 12.9296L-0.0994553 4.01697ZM-2.35237 5.93853C-4.47205 8.85336 -6.19334 14.7814 -3.9328 27.0884L5.90267 25.2818C3.83955 14.0497 5.98936 11.4705 5.73525 11.8199L-2.35237 5.93853ZM-3.93286 27.0881C-2.84895 32.9914 -2.9165 36.7441 -3.20988 38.9408L6.70211 40.2646C7.16415 36.8051 7.13105 31.972 5.90273 25.2822L-3.93286 27.0881ZM-3.21019 38.9431C-3.37387 40.173 -3.60814 40.9091 -3.74768 41.2671L5.56982 44.8982C6.02279 43.7358 6.44227 42.2171 6.70242 40.2623L-3.21019 38.9431ZM-3.74348 41.2564L-3.77508 41.3369L5.53402 44.9894L5.56562 44.9089L-3.74348 41.2564ZM-3.75386 41.2838C-4.05486 42.0258 -4.21181 42.8184 -4.21632 43.6192L5.78352 43.6755C5.78088 44.1442 5.68901 44.6082 5.51281 45.0426L-3.75386 41.2838ZM-4.21606 43.589C-4.22648 44.4832 -4.04723 45.3693 -3.6902 46.189L5.4779 42.1958C5.68522 42.6717 5.78932 43.1863 5.78326 43.7056L-4.21606 43.589ZM-3.6902 46.189C-3.33319 47.0087 -2.80647 47.7434 -2.14464 48.3448L4.58036 40.9438C4.96473 41.2931 5.2706 41.7198 5.4779 42.1958L-3.6902 46.189ZM-2.20096 48.2928C-1.75417 48.7115 -1.24854 49.0624 -0.700218 49.3344L3.74372 40.3761C4.06994 40.5379 4.37081 40.7467 4.63669 40.9958L-2.20096 48.2928ZM-0.750367 49.3092C-0.299755 49.539 0.177079 49.7137 0.669814 49.8294L2.9547 40.0939C3.2459 40.1623 3.52766 40.2655 3.79387 40.4013L-0.750367 49.3092ZM0.626658 49.8191C1.12073 49.9396 1.62741 50 2.13569 49.999L2.1158 39.999C2.41283 39.9985 2.709 40.0337 2.99785 40.1043L0.626658 49.8191ZM2.12574 49.999H24.8769V39.999H2.12574V49.999ZM24.8769 49.999C24.8429 49.999 24.8124 49.9987 24.7864 49.9982C24.7603 49.9977 24.7369 49.9971 24.7168 49.9965C24.6967 49.9958 24.6788 49.9951 24.6634 49.9945C24.648 49.9938 24.6343 49.9931 24.6226 49.9925C24.5999 49.9914 24.5813 49.9903 24.5695 49.9895C24.5575 49.9888 24.548 49.9882 24.5434 49.9878C24.539 49.9875 24.5353 49.9873 24.5361 49.9873C24.5361 49.9874 24.5361 49.9873 24.5362 49.9874C24.5363 49.9874 24.5364 49.9874 24.5365 49.9874C24.5368 49.9874 24.5372 49.9874 24.5377 49.9875C24.5387 49.9875 24.5403 49.9876 24.5422 49.9878C24.5499 49.9883 24.5641 49.9892 24.5818 49.9903C24.5997 49.9914 24.6209 49.9926 24.6448 49.9938C24.6687 49.9949 24.6946 49.996 24.7222 49.997C24.7778 49.9989 24.8375 50 24.9009 50V40C24.9575 40 25.0112 40.001 25.0615 40.0027C25.0865 40.0036 25.1099 40.0046 25.1315 40.0056C25.153 40.0067 25.1721 40.0077 25.1881 40.0087C25.2038 40.0097 25.2161 40.0105 25.2222 40.0109C25.2248 40.0111 25.2271 40.0113 25.226 40.0112C25.2258 40.0112 25.2246 40.0111 25.2232 40.011C25.2217 40.0109 25.2194 40.0107 25.2165 40.0105C25.2113 40.0102 25.2012 40.0095 25.1886 40.0087C25.1761 40.0079 25.157 40.0068 25.1338 40.0056C25.1219 40.005 25.1079 40.0043 25.0923 40.0037C25.0767 40.003 25.0585 40.0023 25.0382 40.0016C25.0179 40.001 24.9943 40.0003 24.968 39.9999C24.9417 39.9994 24.9111 39.999 24.8769 39.999V49.999ZM24.9009 50C25.9921 50 28.405 49.6558 30.343 47.3215L22.6492 40.9337C22.8826 40.6526 23.2389 40.3873 23.6849 40.2141C24.0961 40.0545 24.5094 40 24.9009 40V50ZM30.3432 47.3213C33.044 44.0679 33.3072 38.7651 31.4685 31.0418L21.7404 33.3578C22.5758 36.8672 22.7076 39.0036 22.6292 40.2093C22.5515 41.4053 22.2931 41.3626 22.649 40.9339L30.3432 47.3213ZM22.4678 40.7946C22.7405 40.4634 23.1602 40.1586 23.6839 39.9717C23.9272 39.8848 24.168 39.832 24.3982 39.8027C24.5136 39.7881 24.6273 39.7792 24.7387 39.775C24.7946 39.7729 24.8491 39.772 24.9018 39.772C24.9282 39.7721 24.953 39.7723 24.9757 39.7727C24.987 39.7729 24.997 39.7731 25.0054 39.7733C25.0131 39.7735 25.0199 39.7737 25.0177 39.7737L24.7476 49.77C24.7465 49.77 24.7548 49.7702 24.7643 49.7704C24.7744 49.7707 24.7865 49.7709 24.8003 49.7712C24.8279 49.7717 24.8589 49.772 24.8928 49.772C24.9605 49.7721 25.035 49.7709 25.1157 49.7679C25.2767 49.7618 25.4587 49.7484 25.6585 49.723C26.0573 49.6723 26.5303 49.5736 27.0458 49.3896C28.1141 49.0083 29.2383 48.3037 30.1869 47.1519L22.4678 40.7946ZM24.8827 39.7718H2.12574V49.7718H24.8827V39.7718ZM2.1272 39.7718C2.76171 39.772 3.38643 39.9276 3.94678 40.225L-0.74038 49.0584C0.14185 49.5266 1.12539 49.7715 2.12429 49.7718L2.1272 39.7718ZM3.94678 40.225C4.50722 40.5223 4.98628 40.9524 5.34209 41.4777L-2.93708 47.0862C-2.3769 47.9131 -1.6227 48.5903 -0.74038 49.0584L3.94678 40.225ZM5.31952 41.4447C5.642 41.9126 5.85865 42.4453 5.9543 43.0056L-3.90309 44.6884C-3.75413 45.5609 -3.41674 46.3905 -2.91451 47.1192L5.31952 41.4447ZM5.9543 43.0056C6.04995 43.5658 6.02231 44.1402 5.87332 44.6886L-3.77697 42.0672C-4.009 42.9214 -4.05204 43.8159 -3.90309 44.6884L5.9543 43.0056ZM5.90492 44.5662C5.858 44.758 5.79716 44.9461 5.7229 45.1289L-3.54219 41.3662C-3.65087 41.6338 -3.73991 41.909 -3.80857 42.1896L5.90492 44.5662ZM5.74996 45.0608C6.20892 43.8815 6.5491 42.6592 6.76546 41.4123L-3.08731 39.7027C-3.18999 40.2945 -3.35144 40.8745 -3.56926 41.4343L5.74996 45.0608ZM6.75704 41.4596C7.43857 37.7438 7.47124 32.5551 6.12689 25.2401L-3.70839 27.0477C-2.5104 33.5663 -2.67901 37.4754 -3.07888 39.6555L6.75704 41.4596ZM6.127 25.2407C4.07672 14.0768 6.19838 11.57 5.92057 11.9524L-2.16958 6.07448C-4.27644 8.97431 -5.94921 14.8463 -3.70851 27.0471L6.127 25.2407ZM5.90959 11.9674C5.5501 12.4584 5.08016 12.8579 4.53772 13.1337L0.00514734 4.21991C-0.850393 4.65495 -1.59159 5.28509 -2.1586 6.05942L5.90959 11.9674ZM4.53772 13.1337C3.99528 13.4095 3.3956 13.5539 2.78711 13.5552L2.76626 3.55519C1.80652 3.55719 0.860683 3.78488 0.00514734 4.21991L4.53772 13.1337ZM2.77668 13.5552H25.8844V3.55518H2.77668V13.5552ZM25.8879 13.5552C25.2854 13.5556 24.6911 13.416 24.1518 13.1473L28.6106 4.19642C27.7627 3.77405 26.8282 3.55451 25.8809 3.55518L25.8879 13.5552ZM24.1518 13.1473C23.6126 12.8787 23.1431 12.4884 22.7805 12.0072L30.7668 5.98904C30.1967 5.23245 29.4585 4.61879 28.6106 4.19642L24.1518 13.1473ZM22.7805 12.0072C22.4178 11.526 22.1721 10.9671 22.0625 10.3747L31.8957 8.55579C31.7234 7.62434 31.3369 6.74563 30.7668 5.98904L22.7805 12.0072ZM22.0625 10.3747C21.9529 9.78227 21.9825 9.17246 22.149 8.59342L31.7597 11.3565C32.0214 10.4461 32.068 9.48729 31.8957 8.55579L22.0625 10.3747ZM22.1512 8.58559C21.066 12.3374 18.8433 22.1743 21.519 33.4108L31.247 31.0943C29.1369 22.2332 30.9043 14.3136 31.7574 11.3643L22.1512 8.58559ZM21.5189 33.4107C22.3437 36.8746 22.4799 38.9768 22.4092 40.158C22.3386 41.3361 22.0876 41.2559 22.4692 40.7929L30.1855 47.1536C31.5747 45.4683 32.2411 43.2642 32.3913 40.7557C32.5413 38.2503 32.2015 35.1034 31.247 31.0944L21.5189 33.4107Z" fill="#091337" mask="url(#path-5-inside-3)"/>
<path d="M19.9451 19.1734H4.06838C3.74562 19.1734 3.43609 19.0775 3.20787 18.9067C2.97965 18.7359 2.85144 18.5042 2.85144 18.2627C2.85144 18.0211 2.97965 17.7895 3.20787 17.6187C3.43609 17.4479 3.74562 17.3519 4.06838 17.3519H19.9451C20.2679 17.3519 20.5774 17.4479 20.8056 17.6187C21.0338 17.7895 21.1621 18.0211 21.1621 18.2627C21.1621 18.5042 21.0338 18.7359 20.8056 18.9067C20.5774 19.0775 20.2679 19.1734 19.9451 19.1734Z" fill="#4D546F"/>
<path d="M19.9451 23.104H4.06838C3.74562 23.104 3.43609 23.008 3.20787 22.8372C2.97965 22.6664 2.85144 22.4348 2.85144 22.1932C2.85144 21.9517 2.97965 21.72 3.20787 21.5492C3.43609 21.3784 3.74562 21.2825 4.06838 21.2825H19.9451C20.2679 21.2825 20.5774 21.3784 20.8056 21.5492C21.0338 21.72 21.1621 21.9517 21.1621 22.1932C21.1621 22.4348 21.0338 22.6664 20.8056 22.8372C20.5774 23.008 20.2679 23.104 19.9451 23.104Z" fill="#4D546F"/>
<path d="M20.0089 27.1304H4.9634C4.65755 27.1304 4.36422 27.0344 4.14795 26.8636C3.93168 26.6928 3.81018 26.4612 3.81018 26.2196C3.81018 25.9781 3.93168 25.7464 4.14795 25.5756C4.36422 25.4049 4.65755 25.3089 4.9634 25.3089H20.0089C20.3147 25.3089 20.6081 25.4049 20.8243 25.5756C21.0406 25.7464 21.1621 25.9781 21.1621 26.2196C21.1621 26.4612 21.0406 26.6928 20.8243 26.8636C20.6081 27.0344 20.3147 27.1304 20.0089 27.1304Z" fill="#4D546F"/>
<path d="M20.0534 31.3485H5.58982C5.2958 31.3485 5.01382 31.2526 4.80591 31.0818C4.598 30.911 4.4812 30.6793 4.4812 30.4378C4.4812 30.1962 4.598 29.9646 4.80591 29.7938C5.01382 29.623 5.2958 29.5271 5.58982 29.5271H20.0534C20.3475 29.5271 20.6294 29.623 20.8374 29.7938C21.0453 29.9646 21.1621 30.1962 21.1621 30.4378C21.1621 30.6793 21.0453 30.911 20.8374 31.0818C20.6294 31.2526 20.3475 31.3485 20.0534 31.3485Z" fill="#4D546F"/>
<path d="M17.2614 12.1263H8.70632C8.58641 12.1264 8.46764 12.1029 8.35682 12.0571C8.246 12.0113 8.14529 11.9441 8.06045 11.8593C7.97562 11.7746 7.90832 11.674 7.8624 11.5632C7.81648 11.4524 7.79285 11.3337 7.79285 11.2137C7.79285 11.0938 7.81648 10.9751 7.8624 10.8643C7.90832 10.7535 7.97562 10.6529 8.06045 10.5682C8.14529 10.4834 8.246 10.4162 8.35682 10.3704C8.46764 10.3246 8.58641 10.3011 8.70632 10.3012H17.2614C17.5034 10.3012 17.7355 10.3974 17.9066 10.5685C18.0778 10.7396 18.1739 10.9717 18.1739 11.2137C18.1739 11.4558 18.0778 11.6879 17.9066 11.859C17.7355 12.0301 17.5034 12.1263 17.2614 12.1263Z" fill="#FF8A00"/>
<path d="M20.0917 35.4708H6.12685C5.84296 35.4708 5.57071 35.3749 5.36997 35.2041C5.16923 35.0333 5.05646 34.8016 5.05646 34.5601C5.05646 34.3185 5.16923 34.0869 5.36997 33.9161C5.57071 33.7453 5.84296 33.6493 6.12685 33.6493H20.0917C20.3756 33.6493 20.6479 33.7453 20.8486 33.9161C21.0493 34.0869 21.1621 34.3185 21.1621 34.5601C21.1621 34.8016 21.0493 35.0333 20.8486 35.2041C20.6479 35.3749 20.3756 35.4708 20.0917 35.4708Z" fill="#4D546F"/>
<path d="M52.96 6.04V20H50.16V14.06H44.18V20H41.38V6.04H44.18V11.78H50.16V6.04H52.96ZM54.9959 14.42C54.9959 13.3 55.2159 12.3067 55.6559 11.44C56.1093 10.5733 56.7159 9.90667 57.4759 9.44C58.2493 8.97333 59.1093 8.74 60.0559 8.74C60.8826 8.74 61.6026 8.90667 62.2159 9.24C62.8426 9.57333 63.3426 9.99333 63.7159 10.5V8.92H66.5359V20H63.7159V18.38C63.3559 18.9 62.8559 19.3333 62.2159 19.68C61.5893 20.0133 60.8626 20.18 60.0359 20.18C59.1026 20.18 58.2493 19.94 57.4759 19.46C56.7159 18.98 56.1093 18.3067 55.6559 17.44C55.2159 16.56 54.9959 15.5533 54.9959 14.42ZM63.7159 14.46C63.7159 13.78 63.5826 13.2 63.3159 12.72C63.0493 12.2267 62.6893 11.8533 62.2359 11.6C61.7826 11.3333 61.2959 11.2 60.7759 11.2C60.2559 11.2 59.7759 11.3267 59.3359 11.58C58.8959 11.8333 58.5359 12.2067 58.2559 12.7C57.9893 13.18 57.8559 13.7533 57.8559 14.42C57.8559 15.0867 57.9893 15.6733 58.2559 16.18C58.5359 16.6733 58.8959 17.0533 59.3359 17.32C59.7893 17.5867 60.2693 17.72 60.7759 17.72C61.2959 17.72 61.7826 17.5933 62.2359 17.34C62.6893 17.0733 63.0493 16.7 63.3159 16.22C63.5826 15.7267 63.7159 15.14 63.7159 14.46ZM70.6906 7.6C70.1973 7.6 69.784 7.44667 69.4506 7.14C69.1306 6.82 68.9706 6.42667 68.9706 5.96C68.9706 5.49333 69.1306 5.10667 69.4506 4.8C69.784 4.48 70.1973 4.32 70.6906 4.32C71.184 4.32 71.5906 4.48 71.9106 4.8C72.244 5.10667 72.4106 5.49333 72.4106 5.96C72.4106 6.42667 72.244 6.82 71.9106 7.14C71.5906 7.44667 71.184 7.6 70.6906 7.6ZM72.0706 8.92V20H69.2706V8.92H72.0706ZM77.637 10.54C77.997 10.0067 78.4904 9.57333 79.117 9.24C79.757 8.90667 80.4837 8.74 81.297 8.74C82.2437 8.74 83.097 8.97333 83.857 9.44C84.6304 9.90667 85.237 10.5733 85.677 11.44C86.1304 12.2933 86.357 13.2867 86.357 14.42C86.357 15.5533 86.1304 16.56 85.677 17.44C85.237 18.3067 84.6304 18.98 83.857 19.46C83.097 19.94 82.2437 20.18 81.297 20.18C80.4704 20.18 79.7437 20.02 79.117 19.7C78.5037 19.3667 78.0104 18.94 77.637 18.42V20H74.837V5.2H77.637V10.54ZM83.497 14.42C83.497 13.7533 83.357 13.18 83.077 12.7C82.8104 12.2067 82.4504 11.8333 81.997 11.58C81.557 11.3267 81.077 11.2 80.557 11.2C80.0504 11.2 79.5704 11.3333 79.117 11.6C78.677 11.8533 78.317 12.2267 78.037 12.72C77.7704 13.2133 77.637 13.7933 77.637 14.46C77.637 15.1267 77.7704 15.7067 78.037 16.2C78.317 16.6933 78.677 17.0733 79.117 17.34C79.5704 17.5933 80.0504 17.72 80.557 17.72C81.077 17.72 81.557 17.5867 81.997 17.32C82.4504 17.0533 82.8104 16.6733 83.077 16.18C83.357 15.6867 83.497 15.1 83.497 14.42ZM44.64 31.22V36.58C44.64 36.9533 44.7267 37.2267 44.9 37.4C45.0867 37.56 45.3933 37.64 45.82 37.64H47.12V40H45.36C43 40 41.82 38.8533 41.82 36.56V31.22H40.5V28.92H41.82V26.18H44.64V28.92H47.12V31.22H44.64ZM59.4339 34.22C59.4339 34.62 59.4072 34.98 59.3539 35.3H51.2539C51.3206 36.1 51.6006 36.7267 52.0939 37.18C52.5872 37.6333 53.1939 37.86 53.9139 37.86C54.9539 37.86 55.6939 37.4133 56.1339 36.52H59.1539C58.8339 37.5867 58.2206 38.4667 57.3139 39.16C56.4072 39.84 55.2939 40.18 53.9739 40.18C52.9072 40.18 51.9472 39.9467 51.0939 39.48C50.2539 39 49.5939 38.3267 49.1139 37.46C48.6472 36.5933 48.4139 35.5933 48.4139 34.46C48.4139 33.3133 48.6472 32.3067 49.1139 31.44C49.5806 30.5733 50.2339 29.9067 51.0739 29.44C51.9139 28.9733 52.8806 28.74 53.9739 28.74C55.0272 28.74 55.9672 28.9667 56.7939 29.42C57.6339 29.8733 58.2806 30.52 58.7339 31.36C59.2006 32.1867 59.4339 33.14 59.4339 34.22ZM56.5339 33.42C56.5206 32.7 56.2606 32.1267 55.7539 31.7C55.2472 31.26 54.6272 31.04 53.8939 31.04C53.2006 31.04 52.6139 31.2533 52.1339 31.68C51.6672 32.0933 51.3806 32.6733 51.2739 33.42H56.5339ZM67.5977 40L65.3177 36.56L63.2977 40H60.2977L63.9177 34.44L60.2577 28.92H63.4177L65.6777 32.34L67.7177 28.92H70.7177L67.0777 34.44L70.7577 40H67.5977ZM75.5384 31.22V36.58C75.5384 36.9533 75.6251 37.2267 75.7984 37.4C75.9851 37.56 76.2918 37.64 76.7184 37.64H78.0184V40H76.2584C73.8984 40 72.7184 38.8533 72.7184 36.56V31.22H71.3984V28.92H72.7184V26.18H75.5384V28.92H78.0184V31.22H75.5384Z" fill="#091337"/>
</svg>
