<svg width="588" height="443" viewBox="0 0 588 443" fill="none" xmlns="http://www.w3.org/2000/svg">
<g clip-path="url(#clip0)">
<path d="M467.748 310.586C388.719 275.381 317.222 276.72 249.877 298.207C146.112 279.158 75.0587 282.105 29.4818 310.586V222.163H467.748V310.586Z" fill="#091337"/>
<path d="M467.748 286.27C394.94 251.593 322.22 249.354 248.405 286.27C172.799 263.388 99.7102 263.627 29.0612 286.27V17.4636C104.175 -6.10205 177.242 -5.53575 248.405 17.4636C323.575 -5.45631 396.756 -6.18322 467.748 17.4636V286.27Z" fill="#FF8A00"/>
<path d="M48.7918 50.8222L46.3426 44.2332C47.3025 43.839 70.2392 34.5183 103.901 29.7638C135.022 25.3673 181.389 24.3177 225.549 44.2781L222.891 50.7768C180.207 31.4844 135.211 32.5003 104.98 36.7487C72.0749 41.3741 49.0207 50.7281 48.7918 50.8222Z" fill="#FFCE99"/>
<path d="M48.7918 75.5807L46.3426 68.9917C47.3025 68.5975 70.2392 59.2768 103.901 54.5223C135.022 50.1262 181.389 49.0766 225.549 69.0366L222.891 75.5353C180.207 56.2429 135.211 57.2579 104.98 61.5072C72.0749 66.1326 49.0207 75.4866 48.7918 75.5807Z" fill="#FFCE99"/>
<path d="M48.7918 100.339L46.3426 93.75C47.3025 93.3558 70.2392 84.0351 103.901 79.2807C135.022 74.8841 181.389 73.8345 225.549 93.7949L222.891 100.294C180.207 81.0012 135.211 82.0163 104.98 86.2656C72.0749 90.8909 49.0207 100.245 48.7918 100.339Z" fill="#FFCE99"/>
<path d="M48.7918 125.098L46.3426 118.509C47.3025 118.114 70.2392 108.794 103.901 104.039C135.022 99.6435 181.389 98.5926 225.549 118.553L222.891 125.052C180.207 105.76 135.211 106.775 104.98 111.024C72.0749 115.649 49.0207 125.003 48.7918 125.098Z" fill="#FFCE99"/>
<path d="M48.7918 149.856L46.3426 143.267C47.3025 142.873 70.2392 133.552 103.901 128.798C135.022 124.401 181.389 123.352 225.549 143.312L222.891 149.811C180.207 130.518 135.211 131.534 104.98 135.783C72.0749 140.408 49.0207 149.762 48.7918 149.856Z" fill="#FFCE99"/>
<path d="M48.7918 174.615L46.3426 168.026C47.3025 167.631 70.2392 158.311 103.901 153.556C135.022 149.16 181.389 148.11 225.549 168.07L222.891 174.569C180.207 155.276 135.211 156.293 104.98 160.541C72.0749 165.166 49.0207 174.52 48.7918 174.615Z" fill="#FFCE99"/>
<path d="M268.345 226.784L265.896 220.195C266.856 219.801 289.793 210.48 323.454 205.726C354.576 201.33 400.942 200.28 445.103 220.24L442.445 226.739C399.761 207.446 354.765 208.462 324.534 212.711C291.629 217.336 268.574 226.69 268.345 226.784Z" fill="#091337"/>
<path d="M266.28 179.268V44.0428L268.642 43.2674C328.488 23.617 388.043 23.6208 445.654 43.279L447.98 44.0726V179.088L443.427 177.281C383.475 153.497 325.44 153.483 270.934 177.24L266.28 179.268ZM355.08 152.343C383.248 152.343 411.971 157.862 441.25 168.9V49.2251C386.476 31.0677 329.894 31.0777 273.01 49.2541V168.736C299.147 157.912 326.987 152.351 355.08 152.343Z" fill="#FFCE99"/>
<path d="M441.39 223.281L442.271 200.776L472.509 137.58C473.362 135.784 474.752 134.331 476.466 133.445C477.516 132.895 478.659 132.57 479.83 132.489C481 132.409 482.174 132.575 483.283 132.977C484.568 133.443 485.732 134.214 486.687 135.23C487.641 136.247 488.359 137.481 488.785 138.838C488.967 139.423 489.095 140.026 489.168 140.637C489.382 142.452 489.077 144.293 488.291 145.924L458.012 209.205L441.39 223.281Z" fill="#FFCE99"/>
<path d="M480.232 132.914L447.408 201.512L444.906 200.189L476.652 133.842C477.765 133.256 478.988 132.939 480.232 132.914Z" fill="#3F3D56"/>
<path d="M488.75 140.693L457.178 206.677L454.675 205.354L487.431 136.898C487.834 137.544 488.155 138.242 488.385 138.976C488.559 139.535 488.681 140.11 488.75 140.693Z" fill="#3F3D56"/>
<path d="M485.607 134.805L452.421 204.162L449.918 202.839L483.146 133.395C483.5 133.523 483.845 133.675 484.18 133.853C484.684 134.12 485.162 134.439 485.607 134.805Z" fill="#091337"/>
<path d="M445.186 219.499L441.846 222.326L442.126 214.873C443.273 215.291 444.514 217.105 445.186 219.499Z" fill="#3F3D56"/>
<path d="M115.812 300.731L111.814 287.984L116.073 246.07C116.19 244.88 116.676 243.764 117.455 242.892C117.931 242.353 118.504 241.92 119.141 241.617C119.778 241.314 120.466 241.148 121.164 241.128C121.974 241.105 122.777 241.278 123.512 241.635C124.247 241.991 124.894 242.522 125.402 243.184C125.62 243.471 125.812 243.779 125.975 244.104C126.456 245.068 126.653 246.162 126.54 247.246L122.275 289.216L115.812 300.731Z" fill="#FFCE99"/>
<path d="M119.45 241.765L114.826 287.262L113.167 287.076L117.638 243.072C118.142 242.5 118.761 242.054 119.45 241.765Z" fill="#3F3D56"/>
<path d="M125.753 244.227L121.306 287.99L119.646 287.803L124.26 242.401C124.613 242.672 124.932 242.991 125.207 243.349C125.415 243.623 125.598 243.917 125.753 244.227Z" fill="#3F3D56"/>
<path d="M122.825 241.635L118.151 287.635L116.491 287.449L121.171 241.391C121.394 241.384 121.617 241.394 121.839 241.419C122.174 241.457 122.504 241.529 122.825 241.635Z" fill="#3F3D56"/>
<path d="M117.175 297.785L115.876 300.098L114.546 295.879C115.269 295.859 116.323 296.598 117.175 297.785Z" fill="#3F3D56"/>
<path d="M548.833 285.783C548.378 286.62 547.77 287.354 547.045 287.945C546.319 288.535 545.49 288.969 544.605 289.223C542.817 289.735 540.909 289.479 539.301 288.513C537.692 287.546 536.515 285.947 536.028 284.068C535.541 282.189 535.784 280.183 536.703 278.492C536.719 278.463 536.735 278.435 536.751 278.407C536.946 278.062 537.166 277.734 537.409 277.425L531.532 233.394L531.356 232.075L530.162 223.09L529.986 221.795L530.636 221.828L542.023 222.375L545.076 222.519L545.459 230.716L547.624 276.798C548.756 277.936 549.49 279.44 549.71 281.07C549.929 282.7 549.62 284.36 548.834 285.783H548.833Z" fill="#FFB8B8"/>
<path d="M531.39 232.474L545.848 231.08C546.598 231.006 547.29 230.622 547.772 230.014C548.254 229.406 548.488 228.622 548.423 227.833L545.744 196.228C545.486 193.184 544.087 190.372 541.857 188.412C539.626 186.452 536.746 185.503 533.85 185.775C530.954 186.047 528.28 187.517 526.415 189.861C524.55 192.206 523.648 195.233 523.906 198.277C523.925 198.495 523.949 198.712 523.979 198.928L528.315 229.928C528.414 230.639 528.753 231.288 529.27 231.757C529.787 232.227 530.446 232.486 531.129 232.487C531.216 232.489 531.303 232.484 531.39 232.474Z" fill="#CBCBCB"/>
<path d="M542.349 206.941C543.811 202.587 543.879 197.85 542.542 193.451C541.205 189.053 538.536 185.235 534.942 182.579C529.49 178.657 522.029 177.25 513.994 187.304C504.271 199.579 497.336 214.021 493.716 229.533L526.621 235.164C526.621 235.164 537.811 220.786 542.349 206.941Z" fill="#CBCBCB"/>
<path d="M489.13 433.455H479.749L475.286 395.418H489.132L489.13 433.455Z" fill="#FFB8B8"/>
<path d="M461.658 442.611H491.143V430.637H473.05C470.028 430.637 467.131 431.898 464.995 434.144C462.858 436.39 461.658 439.435 461.658 442.611Z" fill="#2F2E41"/>
<path d="M566.26 424.854L557.353 427.949L541.758 393.307L554.904 388.739L566.26 424.854Z" fill="#FFB8B8"/>
<path d="M542.908 442.611L570.903 432.885L567.328 421.515L550.149 427.484C547.28 428.48 544.906 430.634 543.548 433.471C542.19 436.308 541.959 439.596 542.908 442.611Z" fill="#2F2E41"/>
<path d="M521.693 172.605C532.073 172.605 540.488 163.76 540.488 152.849C540.488 141.938 532.073 133.093 521.693 133.093C511.313 133.093 502.899 141.938 502.899 152.849C502.899 163.76 511.313 172.605 521.693 172.605Z" fill="#FFB8B8"/>
<path d="M505.237 422.867L513.949 362.423C514.042 361.778 514.346 361.187 514.807 360.751C515.269 360.315 515.86 360.061 516.48 360.033C517.1 360.004 517.711 360.203 518.207 360.595C518.703 360.987 519.054 361.548 519.2 362.182L532.468 419.784C532.677 420.667 533.192 421.435 533.912 421.939C534.633 422.443 535.506 422.645 536.361 422.507L572.958 416.325C573.443 416.243 573.906 416.053 574.316 415.767C574.725 415.481 575.072 415.107 575.332 414.669C575.593 414.231 575.761 413.739 575.826 413.227C575.891 412.715 575.85 412.194 575.707 411.699L527.987 246.322C527.852 245.852 527.836 245.353 527.941 244.874L529.529 237.635C529.704 236.85 529.623 236.027 529.3 235.296C528.978 234.565 528.431 233.968 527.749 233.602C521.25 230.117 504.792 222.871 492.372 230.807C491.968 231.066 491.62 231.408 491.346 231.813C491.073 232.218 490.88 232.677 490.781 233.162L453.502 417.337C453.401 417.838 453.402 418.356 453.505 418.856C453.608 419.357 453.81 419.828 454.1 420.24C454.389 420.652 454.758 420.995 455.183 421.246C455.607 421.497 456.078 421.65 456.563 421.696L501.525 425.929C501.627 425.938 501.729 425.943 501.831 425.943C502.655 425.942 503.45 425.631 504.074 425.066C504.699 424.502 505.11 423.722 505.235 422.866L505.237 422.867Z" fill="#55018A"/>
<path d="M534.156 138.891C532.739 137.996 531.482 136.847 530.441 135.497C529.927 134.815 529.588 134.005 529.458 133.146C529.328 132.286 529.411 131.406 529.698 130.59C530.648 128.388 533.469 127.695 535.656 128.442C537.843 129.189 539.532 130.993 541.13 132.732C542.537 134.26 543.985 135.862 544.65 137.872C545.315 139.882 544.974 142.431 543.314 143.652C541.684 144.848 539.341 144.359 537.774 143.073C536.294 141.668 535.114 139.949 534.311 138.03L534.156 138.891Z" fill="#2F2E41"/>
<path d="M540.522 133.262C540.626 127.696 546.662 123.704 551.875 124.691C557.089 125.678 561.095 130.35 563.101 135.502C567.339 146.39 564.158 158.812 560.075 169.768C555.991 180.725 550.938 191.839 551.534 203.586C551.937 209.935 553.964 216.052 557.401 221.291C560.837 226.529 565.556 230.695 571.059 233.348C565.176 236.151 558.143 233.255 553.199 228.885C542.22 219.18 537.982 201.902 543.128 187.827C545.666 180.885 550.14 174.945 553.632 168.477C557.125 162.009 559.687 154.387 557.884 147.195C556.08 140.003 548.406 134.181 541.846 136.963L540.522 133.262Z" fill="#2F2E41"/>
<path d="M520.566 161.616C522.205 158.706 523.857 154.885 520.863 152.341C520.212 151.813 519.467 151.427 518.672 151.206C517.877 150.985 517.048 150.934 516.234 151.054C512.857 151.482 509.18 151.658 505.912 150.369C504.686 149.926 503.558 149.228 502.594 148.317C501.63 147.406 500.849 146.301 500.299 145.067C498.616 140.865 500.725 135.759 504.252 133.103C506.409 131.537 508.959 130.676 511.581 130.627C514.202 130.578 516.779 131.344 518.988 132.829C523.557 130.708 529.099 131.651 533.25 134.571C537.4 137.491 540.24 142.167 541.783 147.159C543.204 151.457 543.449 156.087 542.489 160.524C541.717 163.61 540.249 166.456 538.208 168.819C536.168 171.182 533.616 172.994 530.769 174.101C529.66 174.561 528.455 174.706 527.276 174.523C526.096 174.339 524.984 173.833 524.049 173.055C522.529 171.623 521.363 169.825 520.648 167.816C520.024 165.614 519.692 163.171 520.566 161.616Z" fill="#2F2E41"/>
<path d="M464.811 179.245C464.905 179.679 464.966 180.12 464.994 180.564L497.865 200.498L505.855 195.662L514.372 207.384L501.019 217.388C499.94 218.197 498.641 218.616 497.316 218.582C495.992 218.548 494.713 218.063 493.673 217.2L459.774 189.091C458.244 189.687 456.577 189.779 454.996 189.354C453.415 188.93 451.994 188.01 450.923 186.716C449.851 185.423 449.18 183.817 448.998 182.112C448.816 180.407 449.133 178.685 449.905 177.174C450.677 175.663 451.869 174.435 453.321 173.653C454.774 172.871 456.418 172.573 458.036 172.798C459.654 173.023 461.168 173.76 462.377 174.912C463.587 176.063 464.434 177.575 464.806 179.245L464.811 179.245Z" fill="#FFB8B8"/>
<path d="M498.965 201.442L509.589 215.916C509.891 216.327 510.274 216.665 510.712 216.907C511.15 217.149 511.632 217.288 512.126 217.317C512.619 217.345 513.113 217.262 513.573 217.072C514.034 216.882 514.449 216.59 514.793 216.216L526.82 203.088C527.831 202.301 528.685 201.312 529.333 200.178C529.98 199.043 530.408 197.786 530.593 196.478C530.777 195.169 530.714 193.835 530.407 192.552C530.1 191.269 529.555 190.063 528.804 189.002C528.053 187.941 527.11 187.046 526.029 186.368C524.948 185.691 523.751 185.244 522.505 185.054C521.26 184.864 519.991 184.934 518.771 185.261C517.552 185.587 516.406 186.163 515.398 186.956C515.294 187.037 515.192 187.12 515.091 187.206L500.007 196.072C499.575 196.326 499.201 196.675 498.909 197.095C498.617 197.515 498.414 197.996 498.315 198.505C498.216 199.015 498.222 199.541 498.334 200.048C498.446 200.555 498.66 201.03 498.962 201.442H498.965Z" fill="#CBCBCB"/>
<path d="M92.9965 432.22L103.194 432.219L108.046 390.872L92.9948 390.873L92.9965 432.22Z" fill="#A0616A"/>
<path d="M90.3951 428.72L110.479 428.719H110.48C113.874 428.719 117.13 430.137 119.53 432.66C121.93 435.183 123.279 438.605 123.279 442.173V442.61L90.3957 442.611L90.3951 428.72Z" fill="#6E00B3"/>
<path d="M13.5905 427.58L23.6739 429.182L34.3513 389.061L21.1318 386.697L13.5905 427.58Z" fill="#A0616A"/>
<path d="M11.5157 423.71L31.374 426.865L31.3748 426.866C34.731 427.399 37.7482 429.312 39.7626 432.184C41.7771 435.056 42.6239 438.651 42.1167 442.179L42.0545 442.611L9.54076 437.446L11.5157 423.71Z" fill="#6E00B3"/>
<path d="M45.0338 227.31L56.357 230.428L55.6037 249.725L55.5104 284.86C56.6259 285.671 57.481 286.819 57.9624 288.151C58.4438 289.484 58.5289 290.94 58.2064 292.325C57.8839 293.709 57.1691 294.959 56.1564 295.907C55.1437 296.856 53.8809 297.459 52.5351 297.637C51.1893 297.814 49.8239 297.559 48.6194 296.903C47.415 296.247 46.4283 295.223 45.7899 293.965C45.1515 292.707 44.8915 291.274 45.0442 289.858C45.1969 288.441 45.7552 287.106 46.6452 286.03L43.1657 250.768L45.0338 227.31Z" fill="#A0616A"/>
<path d="M43.0628 205.206C43.1253 203.341 43.6973 201.535 44.7106 200.003C45.7239 198.47 47.1356 197.277 48.7768 196.566C50.3131 195.843 52.0167 195.608 53.6785 195.889C55.3402 196.17 56.8878 196.955 58.1311 198.147C59.0247 198.987 59.7334 200.021 60.2078 201.178C60.6821 202.334 60.9107 203.586 60.8776 204.845C60.9074 216.15 58.4796 232.627 58.455 232.792L58.4162 233.054L41.8654 238.913L43.0628 205.206Z" fill="#FF4646"/>
<path d="M72.6564 237.296L97.9712 230.408L109.673 271.835L110.089 426.164L90.7306 426.036L82.6384 301.127L31.0646 416.545L10.2688 413.922L55.6037 290.197C55.6037 290.197 53.1083 268.337 61.0107 257.407L59.347 246.04L72.6564 237.296Z" fill="#3F3D56"/>
<path d="M55.587 247.603C55.2331 247.151 54.976 246.624 54.8332 246.058C54.6904 245.492 54.6652 244.9 54.7594 244.323L43.2124 207.91C42.6734 206.208 42.6161 204.377 43.0476 202.642C43.4791 200.906 44.3808 199.339 45.6431 198.132L50.6559 193.342L54.0529 179.059L73.5772 184.076L71.9686 190.84L80.8048 189.151L99.4163 232.724L60.5134 249.069L58.5975 249.101C58.0214 249.102 57.4522 248.968 56.9315 248.709C56.4107 248.45 55.9514 248.072 55.587 247.603Z" fill="#FF4646"/>
<path d="M82.6863 216.858L93.8419 213.132L103.018 229.864L120.806 259.61C122.161 259.669 123.468 260.159 124.552 261.015C125.637 261.871 126.449 263.053 126.881 264.404C127.312 265.756 127.343 267.214 126.97 268.584C126.596 269.955 125.836 271.174 124.789 272.08C123.742 272.987 122.458 273.538 121.106 273.66C119.755 273.783 118.4 273.471 117.221 272.767C116.041 272.062 115.093 270.998 114.502 269.715C113.911 268.432 113.704 266.99 113.909 265.581L93.0363 237.734L82.6863 216.858Z" fill="#A0616A"/>
<path d="M69.7805 199.285C68.885 197.673 68.4499 195.825 68.5271 193.961C68.6043 192.097 69.1906 190.296 70.216 188.772C71.1474 187.299 72.4676 186.143 74.0147 185.447C75.5619 184.751 77.2687 184.544 78.9259 184.853C80.1079 185.06 81.2327 185.536 82.2219 186.247C83.211 186.958 84.0407 187.888 84.6531 188.97C90.4268 198.508 96.7541 213.798 96.8172 213.951L96.9175 214.194L85.9089 228.445L69.7805 199.285Z" fill="#FF4646"/>
<path d="M68.4983 176.402C77.0658 176.402 84.0111 169.101 84.0111 160.095C84.0111 151.09 77.0658 143.789 68.4983 143.789C59.9309 143.789 52.9856 151.09 52.9856 160.095C52.9856 169.101 59.9309 176.402 68.4983 176.402Z" fill="#A0616A"/>
<path d="M41.0839 153.217C49.3365 153.217 56.0266 146.185 56.0266 137.51C56.0266 128.835 49.3365 121.803 41.0839 121.803C32.8312 121.803 26.1411 128.835 26.1411 137.51C26.1411 146.185 32.8312 153.217 41.0839 153.217Z" fill="#2F2E41"/>
<path d="M28.1949 150.517C30.129 151.986 32.3697 152.947 34.7296 153.32C37.0895 153.692 39.4999 153.465 41.7592 152.657C44.0185 151.85 46.061 150.485 47.7157 148.678C49.3705 146.871 50.5894 144.673 51.2705 142.269C51.0128 144.423 50.3329 146.498 49.2739 148.363C48.2148 150.227 46.7995 151.84 45.1173 153.1C43.4352 154.361 41.5227 155.241 39.5007 155.685C37.4786 156.129 35.3909 156.128 33.3694 155.681C31.3479 155.234 29.4364 154.352 27.7556 153.09C26.0749 151.827 24.6614 150.212 23.6045 148.347C22.5475 146.481 21.87 144.405 21.6147 142.251C21.3594 140.096 21.5319 137.909 22.1212 135.828C21.7865 138.624 22.1738 141.463 23.2424 144.047C24.3111 146.632 26.0217 148.866 28.1949 150.517Z" fill="#2F2E41"/>
<path d="M87.1657 150.534C84.5571 145.625 83.5589 143.574 80.1954 140.589C77.2211 137.949 73.5625 137.174 70.6116 139.675C67.1207 138.09 63.2364 137.73 59.5356 138.65C55.8349 139.57 52.5151 141.72 50.0695 144.781C47.6238 147.842 46.1827 151.651 45.9603 155.641C45.7379 159.632 46.746 163.591 48.8348 166.932C50.9237 170.272 53.9818 172.815 57.5551 174.183C61.1283 175.551 65.026 175.67 68.6692 174.524C72.3123 173.378 75.5066 171.027 77.7775 167.821C80.0484 164.615 81.2748 160.724 81.2745 156.727C81.2719 156.025 81.2317 155.323 81.1542 154.626C83.7192 154.247 84.6007 150.913 87.1657 150.534Z" fill="#2F2E41"/>
<path d="M238.901 442.779H-81.5966C-81.8197 442.779 -82.0336 442.686 -82.1914 442.52C-82.3491 442.354 -82.4378 442.129 -82.4378 441.895C-82.4378 441.66 -82.3491 441.435 -82.1914 441.269C-82.0336 441.104 -81.8197 441.01 -81.5966 441.01H238.901C239.124 441.01 239.338 441.104 239.496 441.269C239.654 441.435 239.742 441.66 239.742 441.895C239.742 442.129 239.654 442.354 239.496 442.52C239.338 442.686 239.124 442.779 238.901 442.779Z" fill="#CBCBCB"/>
<path d="M667.073 442.779H346.575C346.352 442.779 346.138 442.686 345.98 442.52C345.823 442.354 345.734 442.129 345.734 441.895C345.734 441.66 345.823 441.435 345.98 441.269C346.138 441.104 346.352 441.01 346.575 441.01H667.073C667.296 441.01 667.51 441.104 667.668 441.269C667.826 441.435 667.914 441.66 667.914 441.895C667.914 442.129 667.826 442.354 667.668 442.52C667.51 442.686 667.296 442.779 667.073 442.779Z" fill="#CBCBCB"/>
<path d="M249.246 17.4636H247.563V285.419H249.246V17.4636Z" fill="#CBCBCB"/>
</g>
<defs>
<clipPath id="clip0">
<rect width="588" height="443" fill="white"/>
</clipPath>
</defs>
</svg>
